<?xml version="1.0" encoding="UTF-8"?><svg id="_層_1" xmlns="http://www.w3.org/2000/svg" viewBox="0 0 66 66"><defs><style>.cls-1{fill:#383a3a;fill-rule:evenodd;}</style></defs><path class="cls-1" d="M12.76,41.28h6.82c.97,0,1.76-.79,1.76-1.76v-.15c0-.97-.79-1.76-1.76-1.76h-4.91v-11.16c0-.97-.79-1.76-1.76-1.76h-.15c-.97,0-1.76,.79-1.76,1.76v13.07c0,.97,.79,1.76,1.76,1.76h0Zm42.24-8.19v-.15c0-.97-.79-1.76-1.76-1.76h-4.91v-2.79h4.91c.97,0,1.76-.79,1.76-1.76v-.15c0-.97-.79-1.76-1.76-1.76h-6.82c-.97,0-1.76,.79-1.76,1.76v13.07c0,.97,.79,1.76,1.76,1.76h6.82c.97,0,1.76-.79,1.76-1.76v-.15c0-.97-.79-1.76-1.76-1.76h-4.91v-2.79h4.91c.97,0,1.76-.79,1.76-1.76h0Zm-13.11,7.67h0c.31-.32,.51-.76,.51-1.24v-13.07c0-.97-.79-1.76-1.76-1.76h-.15c-.97,0-1.76,.79-1.76,1.76v7.67l-6.37-8.55c-.3-.53-.88-.89-1.53-.89h-.15c-.97,0-1.76,.79-1.76,1.76v13.07c0,.97,.79,1.76,1.76,1.76h.15c.97,0,1.76-.79,1.76-1.76v-7.82l6.42,8.76c.04,.06,.08,.12,.13,.18h0c.18,.24,.42,.41,.69,.51,.21,.09,.43,.13,.67,.13h.15c.3,0,.58-.07,.82-.21,.18-.08,.32-.19,.43-.32h0Zm-17.36,.53h.15c.97,0,1.76-.79,1.76-1.76v-13.07c0-.97-.79-1.76-1.76-1.76h-.15c-.97,0-1.76,.79-1.76,1.76v13.07c0,.97,.79,1.76,1.76,1.76Z"/></svg>