<svg width="172" height="35" viewBox="0 0 172 35" fill="none" xmlns="http://www.w3.org/2000/svg">
<g clip-path="url(#clip0_1374_2196)">
<path d="M82.4515 5.78882H81.4336V0.921247H82.4515V5.78882Z" fill="#171717"/>
<path d="M88.1958 0.920759V5.78833H87.0305L85.3265 2.92702L84.9063 2.1301H84.8984L84.9281 2.97119V5.78833H84.0137V0.920759H85.1711L86.8755 3.77538L87.2961 4.57956H87.3111L87.2814 3.7379V0.920759H88.1958Z" fill="#171717"/>
<path d="M93.6102 0.920759V1.73948H91.9799V5.78833H90.962V1.73948H89.3242V0.920759H93.6102Z" fill="#171717"/>
<path d="M94.7383 5.78833V0.920759H98.3893V1.73948H95.7562V2.94825H97.8288V3.73117H95.7562V4.96961H98.4927V5.78833H94.7383Z" fill="#171717"/>
<path d="M101.849 0.920759C102.4 0.920759 102.832 1.05372 103.147 1.31922C103.462 1.58415 103.619 1.94095 103.619 2.38833C103.619 2.86564 103.462 3.23039 103.147 3.48443C102.832 3.73733 102.402 3.8636 101.856 3.8636L101.753 3.92287H100.706V5.78833H99.7031V0.920759H101.849ZM101.731 3.14832C102.016 3.14832 102.229 3.09059 102.369 2.97484C102.509 2.85992 102.579 2.68067 102.579 2.44019C102.579 2.19918 102.509 2.0209 102.369 1.90573C102.229 1.7898 102.016 1.73164 101.731 1.73164H100.706V3.14832H101.731ZM102.328 3.36238L103.907 5.78833H102.764L101.458 3.6568L102.328 3.36238Z" fill="#171717"/>
<path d="M109.195 0.920759V5.78833H108.03L106.326 2.92702L105.906 2.1301H105.898L105.928 2.97119V5.78833H105.014V0.920759H106.171L107.876 3.77538L108.296 4.57956H108.311L108.281 3.7379V0.920759H109.195Z" fill="#171717"/>
<path d="M114.985 5.78833H113.93L113.525 4.60079H111.659L111.253 5.78833H110.213L111.991 0.920759H113.208L114.985 5.78833ZM111.887 3.84864H113.296L112.588 1.72437L111.887 3.84864Z" fill="#171717"/>
<path d="M119.227 0.920759V1.73948H117.597V5.78833H116.579V1.73948H114.941V0.920759H119.227Z" fill="#171717"/>
<path d="M121.371 5.78882H120.354V0.921247H121.371V5.78882Z" fill="#171717"/>
<path d="M125.039 0.846375C125.521 0.846375 125.936 0.947591 126.285 1.1492C126.635 1.35081 126.904 1.63796 127.093 2.01209C127.283 2.38607 127.377 2.83331 127.377 3.35439C127.377 3.87601 127.283 4.32325 127.093 4.69684C126.904 5.07082 126.635 5.35811 126.285 5.56015C125.936 5.76176 125.521 5.86255 125.039 5.86255C124.557 5.86255 124.14 5.76176 123.789 5.56015C123.437 5.35811 123.167 5.07082 122.978 4.69684C122.788 4.32325 122.693 3.87601 122.693 3.35439C122.693 2.83331 122.788 2.38607 122.978 2.01209C123.167 1.63796 123.437 1.35081 123.789 1.1492C124.14 0.947591 124.557 0.846375 125.039 0.846375ZM125.039 1.68059C124.764 1.68059 124.53 1.74451 124.338 1.87229C124.147 2.00006 124 2.18768 123.9 2.43642C123.799 2.68428 123.748 2.99075 123.748 3.35439C123.748 3.71384 123.799 4.01835 123.9 4.26932C124 4.51971 124.147 4.70969 124.338 4.8376C124.53 4.96541 124.764 5.0293 125.039 5.0293C125.309 5.0293 125.541 4.96541 125.732 4.8376C125.924 4.70969 126.071 4.51971 126.171 4.26932C126.272 4.01835 126.322 3.71384 126.322 3.35439C126.322 2.99075 126.272 2.68428 126.171 2.43642C126.071 2.18768 125.924 2.00006 125.732 1.87229C125.541 1.74451 125.309 1.68059 125.039 1.68059Z" fill="#171717"/>
<path d="M132.879 0.920759V5.78833H131.714L130.01 2.92702L129.59 2.1301H129.582L129.611 2.97119V5.78833H128.697V0.920759H129.855L131.559 3.77538L131.979 4.57956H131.994L131.964 3.7379V0.920759H132.879Z" fill="#171717"/>
<path d="M138.669 5.78833H137.614L137.209 4.60079H135.343L134.937 5.78833H133.896L135.674 0.920759H136.891L138.669 5.78833ZM135.571 3.84864H136.98L136.272 1.72437L135.571 3.84864Z" fill="#171717"/>
<path d="M140.705 4.96961H143.272V5.78833H139.688V0.920615H140.705V4.96961Z" fill="#171717"/>
<path d="M85.6765 12.2922C85.5831 12.6063 85.4353 12.8697 85.2338 13.0817C85.0323 13.2932 84.7939 13.4501 84.5187 13.553C84.2431 13.6569 83.9403 13.7087 83.6114 13.7087C83.1293 13.7087 82.7126 13.6075 82.3612 13.4065C82.0094 13.2043 81.7388 12.9166 81.5498 12.5425C81.3601 12.1696 81.2656 11.7222 81.2656 11.2002C81.2656 10.6796 81.3601 10.2324 81.5498 9.85828C81.7388 9.4843 82.0094 9.19657 82.3612 8.99536C82.7126 8.79335 83.1242 8.69214 83.5963 8.69214C83.931 8.69214 84.2334 8.7377 84.5036 8.82871C84.7735 8.92016 85.0043 9.05942 85.1933 9.24579C85.3823 9.43229 85.5212 9.66926 85.6099 9.95391L84.688 10.3445C84.6049 10.0499 84.4771 9.83913 84.3046 9.71386C84.1321 9.58873 83.9113 9.52692 83.6407 9.52692C83.3751 9.52692 83.1429 9.59027 82.9439 9.71805C82.7445 9.84639 82.5906 10.0334 82.4825 10.2822C82.3744 10.53 82.3207 10.8365 82.3207 11.2002C82.3207 11.5596 82.3705 11.8646 82.4718 12.1151C82.5724 12.3655 82.7216 12.5554 82.9181 12.6833C83.1142 12.8112 83.3555 12.8749 83.6407 12.8749C83.9066 12.8749 84.1361 12.8033 84.3304 12.661C84.5247 12.5185 84.6615 12.3014 84.7399 12.0116L85.6765 12.2922Z" fill="#171717"/>
<path d="M88.9727 8.69208C89.4541 8.69208 89.8703 8.79329 90.2189 8.9949C90.5679 9.19648 90.8378 9.48424 91.0267 9.85836C91.2164 10.2318 91.3109 10.6796 91.3109 11.2001C91.3109 11.7217 91.2164 12.1695 91.0267 12.5425C90.8378 12.9165 90.5679 13.2038 90.2189 13.4059C89.8703 13.6075 89.4541 13.7083 88.9727 13.7083C88.4909 13.7083 88.074 13.6075 87.7229 13.4059C87.3703 13.2038 87.1005 12.9165 86.9108 12.5425C86.7218 12.1695 86.627 11.7217 86.627 11.2001C86.627 10.6796 86.7218 10.2318 86.9108 9.85836C87.1005 9.48424 87.3703 9.19648 87.7229 8.9949C88.074 8.79329 88.4909 8.69208 88.9727 8.69208ZM88.9727 9.52629C88.6975 9.52629 88.4634 9.59018 88.2719 9.71799C88.0801 9.84576 87.9337 10.0334 87.8327 10.2821C87.7322 10.53 87.6817 10.8365 87.6817 11.2001C87.6817 11.5597 87.7322 11.8646 87.8327 12.115C87.9337 12.3654 88.0801 12.5554 88.2719 12.6833C88.4634 12.8111 88.6975 12.875 88.9727 12.875C89.2433 12.875 89.4738 12.8111 89.6656 12.6833C89.8574 12.5554 90.0038 12.3654 90.1048 12.115C90.206 11.8646 90.2562 11.5597 90.2562 11.2001C90.2562 10.8365 90.206 10.53 90.1048 10.2821C90.0038 10.0334 89.8574 9.84576 89.6656 9.71799C89.4738 9.59018 89.2433 9.52629 88.9727 9.52629Z" fill="#171717"/>
<path d="M96.7244 8.76631V11.7166C96.7244 12.3799 96.5473 12.8786 96.1937 13.2101C95.8393 13.5426 95.3229 13.7083 94.6443 13.7083C93.966 13.7083 93.4496 13.5426 93.096 13.2101C92.7416 12.8786 92.5645 12.3799 92.5645 11.7166V8.76631H93.5827V11.6724C93.5827 12.0802 93.6697 12.3824 93.8443 12.5794C94.0183 12.7763 94.2853 12.875 94.6443 12.875C95.0032 12.875 95.2688 12.7763 95.4413 12.5794C95.6128 12.3824 95.6994 12.0802 95.6994 11.6724V8.76631H96.7244Z" fill="#171717"/>
<path d="M102.404 8.76656V13.6343H101.239L99.5355 10.773L99.1149 9.9759H99.1074L99.1368 10.817V13.6343H98.2227V8.76656H99.3801L101.085 11.6212L101.505 12.4254H101.52L101.49 11.5838V8.76656H102.404Z" fill="#171717"/>
<path d="M108.165 12.2922C108.072 12.6063 107.924 12.8697 107.722 13.0817C107.521 13.2932 107.282 13.4501 107.007 13.553C106.732 13.6569 106.429 13.7087 106.1 13.7087C105.618 13.7087 105.201 13.6075 104.849 13.4065C104.498 13.2043 104.227 12.9166 104.038 12.5425C103.848 12.1696 103.754 11.7222 103.754 11.2002C103.754 10.6796 103.848 10.2324 104.038 9.85828C104.227 9.4843 104.498 9.19657 104.849 8.99536C105.201 8.79335 105.613 8.69214 106.085 8.69214C106.419 8.69214 106.722 8.7377 106.992 8.82871C107.263 8.92016 107.493 9.05942 107.682 9.24579C107.871 9.43229 108.01 9.66926 108.098 9.95391L107.176 10.3445C107.093 10.0499 106.965 9.83913 106.793 9.71386C106.62 9.58873 106.4 9.52692 106.129 9.52692C105.863 9.52692 105.631 9.59027 105.433 9.71805C105.233 9.84639 105.08 10.0334 104.971 10.2822C104.863 10.53 104.809 10.8365 104.809 11.2002C104.809 11.5596 104.859 11.8646 104.96 12.1151C105.061 12.3655 105.21 12.5554 105.406 12.6833C105.603 12.8112 105.844 12.8749 106.129 12.8749C106.395 12.8749 106.625 12.8033 106.819 12.661C107.013 12.5185 107.15 12.3014 107.228 12.0116L108.165 12.2922Z" fill="#171717"/>
<path d="M110.377 13.634H109.359V8.76632H110.377V13.634Z" fill="#171717"/>
<path d="M112.988 12.8158H115.555V13.6345H111.971V8.76681H112.988V12.8158Z" fill="#171717"/>
<path d="M121.235 8.69208C121.716 8.69208 122.132 8.79329 122.481 8.9949C122.83 9.19648 123.099 9.48424 123.289 9.85836C123.478 10.2318 123.572 10.6796 123.572 11.2001C123.572 11.7217 123.478 12.1695 123.289 12.5425C123.099 12.9165 122.83 13.2038 122.481 13.4059C122.132 13.6075 121.716 13.7083 121.235 13.7083C120.753 13.7083 120.336 13.6075 119.985 13.4059C119.632 13.2038 119.362 12.9165 119.173 12.5425C118.984 12.1695 118.889 11.7217 118.889 11.2001C118.889 10.6796 118.984 10.2318 119.173 9.85836C119.362 9.48424 119.632 9.19648 119.985 8.9949C120.336 8.79329 120.753 8.69208 121.235 8.69208ZM121.235 9.52629C120.959 9.52629 120.725 9.59018 120.534 9.71799C120.342 9.84576 120.196 10.0334 120.095 10.2821C119.994 10.53 119.944 10.8365 119.944 11.2001C119.944 11.5597 119.994 11.8646 120.095 12.115C120.196 12.3654 120.342 12.5554 120.534 12.6833C120.725 12.8111 120.959 12.875 121.235 12.875C121.505 12.875 121.736 12.8111 121.928 12.6833C122.119 12.5554 122.266 12.3654 122.366 12.115C122.467 11.8646 122.518 11.5597 122.518 11.2001C122.518 10.8365 122.467 10.53 122.366 10.2821C122.266 10.0334 122.119 9.84576 121.928 9.71799C121.736 9.59018 121.505 9.52629 121.235 9.52629Z" fill="#171717"/>
<path d="M129.106 8.76632V13.634H127.941L126.237 10.7727L125.816 9.97566H125.809L125.838 10.8167V13.634H124.924V8.76632H126.081L127.786 11.6209L128.206 12.4251H128.221L128.191 11.5836V8.76632H129.106Z" fill="#171717"/>
<path d="M137.292 13.6343H136.237L135.831 12.4467H133.966L133.56 13.6343H132.52L134.297 8.76671H135.515L137.292 13.6343ZM134.194 11.6946H135.603L134.895 9.57089L134.194 11.6946Z" fill="#171717"/>
<path d="M140.486 8.76656C141.037 8.76656 141.469 8.89967 141.784 9.16445C142.099 9.42995 142.256 9.78632 142.256 10.2341C142.256 10.7116 142.099 11.0762 141.784 11.3304C141.469 11.5833 141.039 11.709 140.493 11.709L140.39 11.7688H139.343V13.6343H138.34V8.76656H140.486ZM140.368 10.9941C140.653 10.9941 140.866 10.936 141.006 10.8206C141.146 10.7054 141.216 10.5266 141.216 10.2856C141.216 10.0446 141.146 9.86685 141.006 9.7511C140.866 9.63575 140.653 9.57759 140.368 9.57759H139.343V10.9941H140.368ZM140.965 11.2082L142.543 13.6343H141.401L140.095 11.5027L140.965 11.2082Z" fill="#171717"/>
<path d="M147.803 12.2922C147.71 12.6063 147.563 12.8697 147.361 13.0817C147.159 13.2932 146.921 13.4501 146.646 13.553C146.37 13.6569 146.067 13.7087 145.739 13.7087C145.257 13.7087 144.84 13.6075 144.488 13.4065C144.136 13.2043 143.866 12.9166 143.677 12.5425C143.487 12.1696 143.393 11.7222 143.393 11.2002C143.393 10.6796 143.487 10.2324 143.677 9.85828C143.866 9.4843 144.136 9.19657 144.488 8.99536C144.84 8.79335 145.251 8.69214 145.724 8.69214C146.058 8.69214 146.36 8.7377 146.631 8.82871C146.901 8.92016 147.131 9.05942 147.32 9.24579C147.51 9.43229 147.649 9.66926 147.737 9.95391L146.815 10.3445C146.732 10.0499 146.604 9.83913 146.432 9.71386C146.259 9.58873 146.038 9.52692 145.768 9.52692C145.502 9.52692 145.27 9.59027 145.071 9.71805C144.871 9.84639 144.718 10.0334 144.61 10.2822C144.502 10.53 144.448 10.8365 144.448 11.2002C144.448 11.5596 144.497 11.8646 144.599 12.1151C144.7 12.3655 144.849 12.5554 145.045 12.6833C145.242 12.8112 145.482 12.8749 145.768 12.8749C146.034 12.8749 146.263 12.8033 146.457 12.661C146.652 12.5185 146.788 12.3014 146.867 12.0116L147.803 12.2922Z" fill="#171717"/>
<path d="M150.016 13.634H148.998V8.76632H150.016V13.634ZM152.693 11.5842H149.507V10.7655H152.693V11.5842ZM153.18 13.634H152.162V8.76632H153.18V13.634Z" fill="#171717"/>
<path d="M155.791 13.634H154.773V8.76632H155.791V13.634Z" fill="#171717"/>
<path d="M161.589 8.76632L159.818 13.634H158.631L156.854 8.76632H157.93L158.956 11.8646L159.236 12.8232L159.508 11.8713L160.541 8.76632H161.589Z" fill="#171717"/>
<path d="M162.65 13.6343V8.76671H166.301V9.58542H163.668V10.7942H165.74V11.5771H163.668V12.8156H166.404V13.6343H162.65Z" fill="#171717"/>
<path d="M169.422 8.69232C169.864 8.69232 170.252 8.76906 170.587 8.92131C170.921 9.07414 171.207 9.30005 171.442 9.5998L170.874 10.2565C170.673 10.0009 170.453 9.81233 170.214 9.69221C169.976 9.57171 169.699 9.51104 169.385 9.51104C169.178 9.51104 169.008 9.53856 168.872 9.59196C168.736 9.64665 168.639 9.71823 168.577 9.8066C168.515 9.89536 168.485 9.99307 168.485 10.1016C168.485 10.2341 168.537 10.3464 168.64 10.4367C168.743 10.5287 168.92 10.603 169.171 10.6622L170.078 10.8688C170.56 10.9765 170.905 11.1374 171.115 11.3515C171.323 11.5655 171.428 11.8419 171.428 12.1817C171.428 12.5011 171.344 12.775 171.177 13.004C171.01 13.2326 170.776 13.4072 170.477 13.5272C170.176 13.6482 169.833 13.7085 169.443 13.7085C169.105 13.7085 168.794 13.6679 168.511 13.5869C168.228 13.5058 167.976 13.3931 167.754 13.2508C167.533 13.1084 167.349 12.9432 167.201 12.7567L167.776 12.0711C167.889 12.2285 168.03 12.3682 168.197 12.4917C168.364 12.6144 168.555 12.711 168.769 12.7827C168.982 12.8534 169.208 12.8898 169.443 12.8898C169.645 12.8898 169.816 12.8664 169.956 12.8202C170.096 12.7733 170.202 12.7069 170.273 12.6207C170.345 12.534 170.38 12.4295 170.38 12.3069C170.38 12.1791 170.338 12.0695 170.252 11.9785C170.165 11.8882 170.006 11.818 169.776 11.7687L168.787 11.5469C168.502 11.4788 168.257 11.3889 168.053 11.2784C167.849 11.1676 167.694 11.0253 167.589 10.8497C167.483 10.6751 167.43 10.4679 167.43 10.2269C167.43 9.93688 167.509 9.67614 167.666 9.44547C167.823 9.2138 168.051 9.03094 168.348 8.89533C168.646 8.76025 169.003 8.69232 169.422 8.69232Z" fill="#171717"/>
<path d="M85.2502 24.8877C85.1525 25.1475 85.0133 25.3719 84.8318 25.5599C84.6511 25.7479 84.4388 25.8908 84.1951 25.9886C83.951 26.0856 83.6855 26.1345 83.3973 26.1345C82.9607 26.1345 82.5831 26.0383 82.2653 25.8457C81.9471 25.6529 81.7012 25.3801 81.5269 25.0269C81.353 24.6742 81.2656 24.254 81.2656 23.7662C81.2656 23.2788 81.353 22.8581 81.5269 22.5052C81.7012 22.1526 81.9471 21.8793 82.2653 21.6871C82.5831 21.4944 82.9557 21.3972 83.383 21.3972C83.6804 21.3972 83.9453 21.4388 84.1776 21.5199C84.4095 21.6008 84.6081 21.7213 84.7731 21.8814C84.9374 22.0419 85.0688 22.2383 85.1665 22.47L84.6164 22.7281C84.514 22.4633 84.3666 22.2627 84.1736 22.1255C83.9811 21.9889 83.7313 21.9198 83.4252 21.9198C83.1139 21.9198 82.8404 21.9931 82.6028 22.1396C82.3666 22.2856 82.1815 22.496 82.0494 22.7697C81.9167 23.044 81.8508 23.376 81.8508 23.7662C81.8508 24.1516 81.9134 24.4826 82.0387 24.7584C82.1643 25.0346 82.3433 25.2466 82.5752 25.3925C82.8075 25.5391 83.0813 25.6119 83.3973 25.6119C83.7037 25.6119 83.9707 25.5345 84.1983 25.3786C84.4256 25.2232 84.591 24.99 84.6926 24.6788L85.2502 24.8877Z" fill="#171717"/>
<path d="M88.3505 21.3973C88.7868 21.3973 89.1644 21.4939 89.4822 21.6866C89.8007 21.8794 90.0466 22.1521 90.2205 22.5049C90.3945 22.858 90.4818 23.2783 90.4818 23.7661C90.4818 24.2535 90.3945 24.6737 90.2205 25.0265C90.0466 25.3798 89.8007 25.653 89.4822 25.8452C89.1644 26.0378 88.7868 26.134 88.3505 26.134C87.9142 26.134 87.5362 26.0378 87.2184 25.8452C86.8999 25.653 86.6543 25.3798 86.48 25.0265C86.3061 24.6737 86.2188 24.2535 86.2188 23.7661C86.2188 23.2783 86.3061 22.858 86.48 22.5049C86.6543 22.1521 86.8999 21.8794 87.2184 21.6866C87.5362 21.4939 87.9142 21.3973 88.3505 21.3973ZM88.3505 21.9199C88.0344 21.9199 87.7606 21.9926 87.5287 22.1392C87.2964 22.2857 87.1175 22.4965 86.9918 22.7729C86.8666 23.0497 86.8039 23.3802 86.8039 23.7661C86.8039 24.1515 86.8666 24.4825 86.9918 24.7583C87.1175 25.0347 87.2964 25.2462 87.5287 25.3922C87.7606 25.5386 88.0344 25.6118 88.3505 25.6118C88.6708 25.6118 88.9457 25.5386 89.1758 25.3922C89.4059 25.2462 89.5831 25.0347 89.7087 24.7583C89.834 24.4825 89.897 24.1515 89.897 23.7661C89.897 23.3802 89.834 23.0497 89.7087 22.7729C89.5831 22.4965 89.4059 22.2857 89.1758 22.1392C88.9457 21.9926 88.6708 21.9199 88.3505 21.9199Z" fill="#171717"/>
<path d="M95.4893 21.4673V26.0649H94.8L92.8773 22.986L92.3895 22.1219H92.3826L92.4102 22.8186V26.0649H91.8809V21.4673H92.5702L94.4861 24.5324L94.9807 25.4171H94.9882L94.96 24.7137V21.4673H95.4893Z" fill="#171717"/>
<path d="M98.6463 21.3973C99.0504 21.3973 99.3983 21.48 99.6914 21.6445C99.9834 21.8098 100.228 22.0523 100.422 22.3729L99.9559 22.7345C99.7837 22.4378 99.5901 22.2279 99.3746 22.1049C99.1585 21.9817 98.8972 21.9199 98.5905 21.9199C98.3442 21.9199 98.1406 21.9547 97.9806 22.0244C97.8206 22.0938 97.7032 22.1858 97.6291 22.2996C97.5547 22.4135 97.5178 22.5422 97.5178 22.6861C97.5178 22.8487 97.5686 22.9915 97.671 23.1147C97.773 23.2378 97.977 23.334 98.2837 23.4036L99.2798 23.6264C99.7211 23.724 100.029 23.8717 100.203 24.0685C100.377 24.2665 100.464 24.5111 100.464 24.8036C100.464 25.0643 100.391 25.2951 100.245 25.4966C100.099 25.6992 99.8929 25.8555 99.628 25.9672C99.3635 26.0784 99.0525 26.134 98.695 26.134C98.3603 26.134 98.0668 26.0887 97.8134 25.9984C97.5604 25.908 97.3431 25.7859 97.1624 25.6327C96.9813 25.4795 96.8328 25.3075 96.7168 25.1174L97.2039 24.7204C97.2923 24.8971 97.4065 25.0525 97.5454 25.187C97.6849 25.322 97.8535 25.4259 98.0507 25.5001C98.2483 25.5751 98.4741 25.6118 98.7293 25.6118C98.9666 25.6118 99.1721 25.5828 99.3464 25.5252C99.5203 25.467 99.6534 25.3813 99.7469 25.2669C99.8399 25.1531 99.8861 25.0156 99.8861 24.8524C99.8861 24.7038 99.8374 24.5703 99.7397 24.4524C99.6427 24.3334 99.4587 24.2445 99.1896 24.1839L98.1101 23.9402C97.8263 23.8753 97.598 23.7859 97.4237 23.6716C97.2497 23.5583 97.1241 23.4233 97.0479 23.2674C96.9709 23.1121 96.9323 22.9437 96.9323 22.763C96.9323 22.5168 97.001 22.2903 97.1381 22.0835C97.2751 21.8773 97.4727 21.7111 97.7304 21.5859C97.9881 21.4601 98.2934 21.3973 98.6463 21.3973Z" fill="#171717"/>
<path d="M101.809 26.0647V21.4672H105.034V21.9893H102.366V23.4729H104.442V23.9956H102.366V25.5421H105.139V26.0647H101.809Z" fill="#171717"/>
<path d="M106.983 26.0652H106.426V21.4677H106.983V26.0652Z" fill="#171717"/>
<path d="M109.219 25.5421H111.852V26.0647H108.662V21.4671H109.219V25.5421Z" fill="#171717"/>
<path d="M115.921 26.0652H115.363V21.4677H115.921V26.0652Z" fill="#171717"/>
<path d="M121.208 21.4671V26.0647H120.519L118.596 22.9857L118.108 22.1217H118.101L118.129 22.8183V26.0647H117.6V21.4671H118.289L120.205 24.5321L120.699 25.4168H120.707L120.679 24.7134V21.4671H121.208Z" fill="#171717"/>
<path d="M126.119 21.4673V21.9895H124.517V26.0649H123.959V21.9895H122.357V21.4673H126.119Z" fill="#171717"/>
<path d="M127.268 26.0647V21.4672H130.493V21.9893H127.825V23.4729H129.901V23.9956H127.825V25.5421H130.598V26.0647H127.268Z" fill="#171717"/>
<path d="M133.628 21.4673C134.098 21.4673 134.474 21.588 134.757 21.8295C135.04 22.0711 135.182 22.3983 135.182 22.8119C135.182 23.2249 135.039 23.547 134.754 23.7766C134.468 24.0061 134.09 24.1211 133.622 24.1211L133.573 24.1563H132.444V26.0649H131.887V21.4673H133.628ZM133.622 23.6337C133.951 23.6337 134.196 23.5652 134.356 23.428C134.517 23.2909 134.597 23.0856 134.597 22.8119C134.597 22.5376 134.517 22.3323 134.356 22.1952C134.196 22.058 133.951 21.9895 133.622 21.9895H132.444V23.6337H133.622ZM133.942 23.7448L135.46 26.0649H134.799L133.475 24.0514L133.942 23.7448Z" fill="#171717"/>
<path d="M140.302 21.4673V26.0649H139.612L137.69 22.986L137.202 22.1219H137.196L137.223 22.8186V26.0649H136.693V21.4673H137.383L139.299 24.5324L139.793 25.4171H139.801L139.772 24.7137V21.4673H140.302Z" fill="#171717"/>
<path d="M145.646 26.0647H145.053L144.566 24.7899H142.484L141.995 26.0647H141.41L143.2 21.4672H143.863L145.646 26.0647ZM142.685 24.2673H144.364L143.521 22.0039L142.685 24.2673Z" fill="#171717"/>
<path d="M149.357 21.4673V21.9895H147.755V26.0649H147.198V21.9895H145.596V21.4673H149.357Z" fill="#171717"/>
<path d="M151.063 26.0652H150.506V21.4677H151.063V26.0652Z" fill="#171717"/>
<path d="M154.596 21.3973C155.032 21.3973 155.41 21.4939 155.728 21.6866C156.046 21.8794 156.292 22.1521 156.466 22.5049C156.641 22.858 156.728 23.2783 156.728 23.7661C156.728 24.2535 156.641 24.6737 156.466 25.0265C156.292 25.3798 156.046 25.653 155.728 25.8452C155.41 26.0378 155.032 26.134 154.596 26.134C154.159 26.134 153.782 26.0378 153.464 25.8452C153.146 25.653 152.9 25.3798 152.726 25.0265C152.552 24.6737 152.465 24.2535 152.465 23.7661C152.465 23.2783 152.552 22.858 152.726 22.5049C152.9 22.1521 153.146 21.8794 153.464 21.6866C153.782 21.4939 154.159 21.3973 154.596 21.3973ZM154.596 21.9199C154.281 21.9199 154.006 21.9926 153.774 22.1392C153.542 22.2857 153.363 22.4965 153.238 22.7729C153.113 23.0497 153.05 23.3802 153.05 23.7661C153.05 24.1515 153.113 24.4825 153.238 24.7583C153.363 25.0347 153.542 25.2462 153.774 25.3922C154.006 25.5386 154.281 25.6118 154.596 25.6118C154.917 25.6118 155.191 25.5386 155.422 25.3922C155.651 25.2462 155.829 25.0347 155.955 24.7583C156.08 24.4825 156.143 24.1515 156.143 23.7661C156.143 23.3802 156.08 23.0497 155.955 22.7729C155.829 22.4965 155.651 22.2857 155.422 22.1392C155.191 21.9926 154.917 21.9199 154.596 21.9199Z" fill="#171717"/>
<path d="M161.735 21.4671V26.0647H161.045L159.123 22.9857L158.636 22.1217H158.629L158.656 22.8183V26.0647H158.127V21.4671H158.816L160.732 24.5321L161.227 25.4168H161.234L161.206 24.7134V21.4671H161.735Z" fill="#171717"/>
<path d="M167.079 26.0647H166.487L165.999 24.7899H163.916L163.429 26.0647H162.844L164.634 21.4672H165.296L167.079 26.0647ZM164.118 24.2673H165.798L164.954 22.0039L164.118 24.2673Z" fill="#171717"/>
<path d="M168.745 25.5421H171.378V26.0647H168.188V21.4671H168.745V25.5421Z" fill="#171717"/>
<path d="M83.0285 29.206C83.7486 29.206 84.3137 29.4044 84.7246 29.8013C85.1362 30.1982 85.3413 30.766 85.3413 31.5047C85.3413 32.2429 85.1362 32.8108 84.7246 33.2082C84.3137 33.6051 83.7486 33.8035 83.0285 33.8035H81.5449V29.206H83.0285ZM83.0839 33.2809C83.6086 33.2809 84.0188 33.124 84.3137 32.8108C84.6086 32.497 84.7564 32.0616 84.7564 31.5047C84.7564 30.9473 84.6086 30.5119 84.3137 30.1982C84.0188 29.8851 83.6086 29.728 83.0839 29.728H82.1022V33.2809H83.0839Z" fill="#171717"/>
<path d="M86.7402 33.8035V29.206H89.9657V29.728H87.2975V31.2118H89.3734V31.7344H87.2975V33.281H90.0702V33.8035H86.7402Z" fill="#171717"/>
<path d="M92.8357 29.1361C93.2398 29.1361 93.5881 29.2187 93.8805 29.3833C94.1729 29.5485 94.417 29.7911 94.6117 30.1117L94.1453 30.4732C93.9735 30.1761 93.7795 29.9663 93.5634 29.8436C93.3479 29.7205 93.0866 29.6587 92.7803 29.6587C92.534 29.6587 92.3304 29.6935 92.1704 29.7631C92.0097 29.8328 91.8926 29.9246 91.8186 30.0384C91.7441 30.1522 91.7073 30.281 91.7073 30.4244C91.7073 30.5876 91.7584 30.7305 91.8604 30.8535C91.9624 30.9767 92.1665 31.0727 92.4732 31.1424L93.4696 31.3652C93.9105 31.4629 94.2187 31.6104 94.3927 31.8073C94.5666 32.0052 94.6539 32.2499 94.6539 32.5424C94.6539 32.8027 94.5806 33.0338 94.4342 33.2354C94.2878 33.4374 94.0823 33.5943 93.8175 33.706C93.553 33.8172 93.242 33.8728 92.8844 33.8728C92.5501 33.8728 92.2559 33.8276 92.0029 33.7372C91.7498 33.6469 91.533 33.5247 91.3519 33.3715C91.1708 33.2182 91.0222 33.0463 90.9062 32.8561L91.3937 32.4592C91.4818 32.6359 91.5956 32.7912 91.7348 32.9252C91.874 33.0608 92.043 33.1647 92.2402 33.2391C92.4374 33.3138 92.6636 33.3508 92.9188 33.3508C93.1561 33.3508 93.3615 33.3217 93.5355 33.2634C93.7094 33.2058 93.8429 33.1195 93.9363 33.0057C94.0294 32.892 94.0752 32.7538 94.0752 32.5912C94.0752 32.4427 94.0265 32.3092 93.9292 32.1906C93.8322 32.0722 93.6482 31.9834 93.3791 31.9226L92.2996 31.6789C92.0158 31.6141 91.7867 31.5247 91.6128 31.4104C91.4392 31.2971 91.3136 31.162 91.2366 31.0062C91.1596 30.8508 91.1217 30.6825 91.1217 30.5013C91.1217 30.2555 91.1904 30.029 91.3275 29.8223C91.4646 29.6161 91.6618 29.4498 91.9199 29.3241C92.1775 29.1984 92.4828 29.1361 92.8357 29.1361Z" fill="#171717"/>
<path d="M101.933 33.8035H101.34L100.853 32.5287H98.7703L98.2821 33.8035H97.6973L99.4872 29.206H100.15L101.933 33.8035ZM98.9721 32.0061H100.651L99.8079 29.7427L98.9721 32.0061Z" fill="#171717"/>
<path d="M104.783 29.206C105.252 29.206 105.628 29.3265 105.911 29.5681C106.194 29.8097 106.336 30.137 106.336 30.5504C106.336 30.9634 106.193 31.2855 105.908 31.5152C105.622 31.7448 105.245 31.8596 104.776 31.8596L104.727 31.8949H103.598V33.8035H103.041V29.206H104.783ZM104.776 31.3723C105.105 31.3723 105.351 31.3042 105.511 31.1665C105.671 31.0294 105.751 30.8241 105.751 30.5504C105.751 30.2761 105.671 30.071 105.511 29.9338C105.351 29.7967 105.105 29.728 104.776 29.728H103.598V31.3723H104.776ZM105.096 31.4835L106.614 33.8035H105.953L104.629 31.7899L105.096 31.4835Z" fill="#171717"/>
<path d="M111.512 32.6262C111.414 32.886 111.275 33.1104 111.094 33.2986C110.913 33.4866 110.7 33.6294 110.456 33.7271C110.212 33.8243 109.946 33.873 109.659 33.873C109.222 33.873 108.845 33.777 108.527 33.5842C108.208 33.3915 107.963 33.1188 107.789 32.7655C107.615 32.4127 107.527 31.9925 107.527 31.5047C107.527 31.0174 107.615 30.5966 107.789 30.2439C107.963 29.8912 108.208 29.6178 108.527 29.4257C108.845 29.2329 109.217 29.1363 109.645 29.1363C109.942 29.1363 110.207 29.1773 110.439 29.2584C110.671 29.3395 110.87 29.46 111.035 29.6205C111.199 29.7806 111.33 29.9769 111.428 30.2091L110.878 30.4668C110.776 30.2018 110.628 30.0013 110.435 29.8642C110.243 29.7274 109.993 29.6589 109.687 29.6589C109.376 29.6589 109.102 29.7317 108.864 29.8781C108.628 30.0247 108.443 30.2345 108.311 30.5089C108.178 30.7826 108.112 31.1145 108.112 31.5047C108.112 31.8901 108.175 32.2211 108.3 32.4969C108.426 32.7739 108.605 32.9853 108.837 33.1312C109.068 33.2777 109.343 33.3504 109.659 33.3504C109.965 33.3504 110.232 33.2731 110.46 33.1172C110.687 32.9619 110.852 32.7286 110.954 32.4175L111.512 32.6262Z" fill="#171717"/>
<path d="M113.315 33.8035H112.758V29.206H113.315V33.8035ZM116.067 31.7344H113.051V31.2118H116.067V31.7344ZM116.366 33.8035H115.809V29.206H116.366V33.8035Z" fill="#171717"/>
<path d="M118.602 33.8035H118.045V29.206H118.602V33.8035Z" fill="#171717"/>
<path d="M123.848 29.206L122.106 33.8035H121.473L119.725 29.206H120.324L121.494 32.3822L121.787 33.295L122.079 32.3889L123.249 29.206H123.848Z" fill="#171717"/>
<path d="M124.969 33.8035V29.206H128.194V29.728H125.526V31.2118H127.602V31.7344H125.526V33.281H128.299V33.8035H124.969Z" fill="#171717"/>
<path d="M131.066 29.1361C131.47 29.1361 131.819 29.2187 132.111 29.3833C132.403 29.5485 132.647 29.7911 132.842 30.1117L132.376 30.4732C132.204 30.1761 132.01 29.9663 131.795 29.8436C131.578 29.7205 131.317 29.6587 131.011 29.6587C130.764 29.6587 130.561 29.6935 130.401 29.7631C130.241 29.8328 130.123 29.9246 130.049 30.0384C129.975 30.1522 129.938 30.281 129.938 30.4244C129.938 30.5876 129.989 30.7305 130.091 30.8535C130.193 30.9767 130.397 31.0727 130.704 31.1424L131.7 31.3652C132.141 31.4629 132.449 31.6104 132.623 31.8073C132.797 32.0052 132.884 32.2499 132.884 32.5424C132.884 32.8027 132.811 33.0338 132.665 33.2354C132.519 33.4374 132.313 33.5943 132.048 33.706C131.783 33.8172 131.472 33.8728 131.115 33.8728C130.781 33.8728 130.487 33.8276 130.233 33.7372C129.98 33.6469 129.763 33.5247 129.583 33.3715C129.401 33.2182 129.253 33.0463 129.137 32.8561L129.624 32.4592C129.712 32.6359 129.826 32.7912 129.965 32.9252C130.105 33.0608 130.273 33.1647 130.471 33.2391C130.668 33.3138 130.894 33.3508 131.149 33.3508C131.387 33.3508 131.592 33.3217 131.766 33.2634C131.941 33.2058 132.073 33.1195 132.167 33.0057C132.26 32.892 132.306 32.7538 132.306 32.5912C132.306 32.4427 132.257 32.3092 132.16 32.1906C132.063 32.0722 131.879 31.9834 131.61 31.9226L130.53 31.6789C130.247 31.6141 130.018 31.5247 129.844 31.4104C129.67 31.2971 129.544 31.162 129.468 31.0062C129.391 30.8508 129.353 30.6825 129.353 30.5013C129.353 30.2555 129.421 30.029 129.558 29.8223C129.695 29.6161 129.892 29.4498 130.15 29.3241C130.408 29.1984 130.713 29.1361 131.066 29.1361Z" fill="#171717"/>
<path d="M171.377 17.7463H81.2637V17.3046H171.377V17.7463Z" fill="#369197"/>
<mask id="mask0_1374_2196" style="mask-type:luminance" maskUnits="userSpaceOnUse" x="34" y="4" width="9" height="9">
<path d="M35.5148 12.866L34.3418 11.693L41.4974 4.53813L42.6699 5.71114L35.5148 12.866Z" fill="white"/>
</mask>
<g mask="url(#mask0_1374_2196)">
<path d="M34.3418 12.866H42.6699V4.53813H34.3418V12.866Z" fill="#A7E1D9"/>
</g>
<path d="M17.9211 30.4602L16.748 29.2872L23.9034 22.1322L25.076 23.3052L17.9211 30.4602Z" fill="#369197"/>
<path d="M41.4967 30.4602L34.3418 23.3052L35.5144 22.1322L42.67 29.2872L41.4967 30.4602Z" fill="#369197"/>
<path d="M23.903 12.866L16.748 5.71114L17.9206 4.53813L25.076 11.693L23.903 12.866Z" fill="#55B6B3"/>
<path d="M12.209 18.3279H22.3283V16.6696H12.209V18.3279Z" fill="#3D9EA1"/>
<path d="M28.8809 34.9998H30.539V24.88H28.8809V34.9998Z" fill="#369197"/>
<path d="M28.8809 10.1177H30.539V-0.00150585H28.8809V10.1177Z" fill="#79CCC5"/>
<path d="M13.9252 25.0999L13.2773 23.5737L22.5918 19.6198L23.2397 21.1461L13.9252 25.0999Z" fill="#369197"/>
<path d="M35.7839 33.9324L31.8301 24.6179L33.3563 23.9702L37.3102 33.2846L35.7839 33.9324Z" fill="#369197"/>
<path d="M26.0633 11.0281L22.1094 1.71308L23.6351 1.06519L27.5894 10.3802L26.0633 11.0281Z" fill="#67C2BD"/>
<path d="M22.5558 15.5027L13.1738 11.7119L13.7946 10.1747L23.1765 13.9655L22.5558 15.5027Z" fill="#48ABAB"/>
<path d="M23.922 34.0356L22.3848 33.4149L26.1755 24.0323L27.7127 24.6537L23.922 34.0356Z" fill="#369197"/>
<path d="M33.2442 10.9656L31.707 10.3447L35.4978 0.962144L37.0348 1.58362L33.2442 10.9656Z" fill="#8FD7D0"/>
<path d="M0 33.7732H5.31958V0.959446H0V33.7732Z" fill="#369197"/>
<path d="M63.4152 0.960018H57.0516L44.6719 33.7732H50.1407L53.2732 25.1719H67.0444L70.1769 33.7732H75.7946L63.4152 0.960018ZM60.1837 5.53411L65.553 20.8466H54.7646L60.1837 5.53411Z" fill="#369197"/>
</g>
<defs>
<clipPath id="clip0_1374_2196">
<rect width="171.442" height="35" fill="white"/>
</clipPath>
</defs>
</svg>
