<svg id="EN" xmlns="http://www.w3.org/2000/svg" width="266" height="68" viewBox="0 0 266 68"><defs><style>.cls-1{fill:#215b33;}</style></defs><title>icomos-logo-en</title><path class="cls-1" d="M13.17,35.27c0,7,.6,7.23,3.71,7.62l1.46.2c.46.47.4,1.66-.13,1.92-2.92-.13-5.9-.2-8.82-.2s-6,.07-8.95.2c-.53-.27-.6-1.46-.13-1.92l1.46-.2c3.12-.4,3.71-.6,3.71-7.62V10.61c0-7-.6-7.23-3.71-7.62L.31,2.79C-.15,2.32-.09,1.13.44.86q4.37.2,8.95.2c2.92,0,5.9-.07,8.82-.2.53.27.6,1.46.13,1.92L16.88,3c-3.11.4-3.71.6-3.71,7.62Zm52-23.07c-.66-4.91-.8-8.82-.93-10.34-.6-.13-1.06-.2-1.86-.4A51.17,51.17,0,0,0,50.93,0c-6.7,0-13.39,1.92-18.3,5.63A21.64,21.64,0,0,0,24.28,23.2c0,8.68,4,14.72,9.41,18.23,4.77,3.11,10.41,4.44,17,4.44A39.5,39.5,0,0,0,61,44.28a23.05,23.05,0,0,1,2.32-.6,25.74,25.74,0,0,0,3.18-10.08,1.33,1.33,0,0,0-2-.27c-1.86,4.31-5.5,9.88-13.85,9.88-8.55,0-17.37-6.9-17.37-21,0-13.59,8.48-19.55,16.9-19.55,8.75,0,11.73,5.5,12.86,9.68a1.7,1.7,0,0,0,2.12-.13m53.1,10.87c0,13.06-9.94,22.8-23.33,22.8-15,0-23.6-10.54-23.6-22.34C71.35,10,81.16,0,95.08,0,110.39,0,118.28,11,118.28,23.07Zm-9,1.19c0-10-4.51-21.61-15-21.61-6.63,0-13.85,4.84-13.85,19,0,9.15,3.91,21.61,15.25,21.61C103.17,43.22,109.27,37.59,109.27,24.26ZM177,42.76c-2.12-.27-2.85-.73-3-5.17-.47-9.81-.6-19.62-.6-29.43,0-3.51.66-4.64,3.58-5l2.19-.33a1.15,1.15,0,0,0-.2-1.92q-2.79.2-7,.2c-1.46,0-3.65-.07-5.44-.2-1.13,4.38-3.25,8.29-5.37,12.66l-6.23,12.73c-1.46,3.11-2.39,5-3.45,6.89-.86-1.52-2.58-4.84-3.11-6l-7.29-15.31c-1.66-3.58-3.38-7-3.65-11-2.45.2-4.77.2-7.09.2s-4.24-.07-6.23-.2c-.6.2-.66,1.46-.27,1.92l2.25.4c2.58.4,3.58,1.79,3.58,4.91,0,4-.4,9.54-.66,14.05-.33,6.89-.46,11.2-1,15.38s-.93,5-4.11,5.44l-1.13.13A1.45,1.45,0,0,0,123,45c2.59-.13,5-.2,7.09-.2,2.45,0,4.51.07,7,.2.53-.27.53-1.53.07-1.92l-2.19-.4c-2.85-.46-2.92-1.52-2.92-5.9,0-5.43.13-11.33.27-15.38.13-2.79.27-8,.4-11.2h.13c.79,2,2.58,6.17,3.84,8.95l5.9,12.73c1.52,3.31,4.37,9.81,5.5,13.39a2,2,0,0,0,1.72,0c1.19-3.11,4.51-10.47,6.76-15.11l5.7-11.67c1.26-2.65,2.19-4.64,4-8.29h.13V37.32c0,4.51-.2,5-2.85,5.44l-1.79.33c-.66.4-.4,1.66.13,1.92,2.92-.13,5.77-.2,8.88-.2,2.65,0,5.24.07,8.09.2.73-.27.8-1.66.13-1.92Zm55.06-19.69c0,13.06-9.94,22.8-23.33,22.8-15,0-23.6-10.54-23.6-22.34C185.15,10,195,0,208.88,0,224.19,0,232.08,11,232.08,23.07Zm-9,1.19c0-10-4.51-21.61-15-21.61-6.63,0-13.86,4.84-13.86,19,0,9.15,3.91,21.61,15.25,21.61C217,43.22,223.07,37.59,223.07,24.26Zm16.68,18.82a20,20,0,0,0,10.87,2.78c9.61,0,15.38-5.37,15.38-12.93,0-6.7-4.77-10.8-9.08-13.06l-4.11-2.19c-4.38-2.32-6.3-5.3-6.3-8.09,0-3.51,2.19-7,7.49-7,5.64,0,8,4.44,9,7.89a1.6,1.6,0,0,0,2.12-.2c0-3.11-.66-7.49-1.39-8.95C260.56.8,258,0,254.6,0,244.92,0,240,5.57,240,12.13c0,6,4.37,10,9.35,12.79l2.85,1.59c5,2.79,6.76,5.83,6.76,9.61,0,4-2.85,7.09-7.89,7.09-6.5,0-10.08-7.09-11.27-10.48a1.48,1.48,0,0,0-2.06.27c-.07,4.11.8,8.68,2,10.08M11.4,58.3a.89.89,0,1,0,.89-.88.85.85,0,0,0-.89.88M13,62.62c0-.57,0-1.24,0-1.7a.26.26,0,0,0-.19-.11,8.22,8.22,0,0,1-1.81.75.37.37,0,0,0,0,.32l.17.1c.35.21.35.38.35,1v2c0,1-.05,1.18-.53,1.25l-.25,0c-.1.1-.08.35,0,.4.53,0,1,0,1.46,0s1,0,1.5,0c.11-.05.12-.31,0-.4l-.25,0c-.47-.07-.53-.22-.53-1.25Zm3.66.54c0-.51,0-.64.19-.89a1.14,1.14,0,0,1,.92-.43c.83,0,1.11.56,1.11,1.27V65c0,1-.06,1.18-.53,1.27l-.21,0c-.1.1-.08.35,0,.4.49,0,1,0,1.42,0s1,0,1.57,0c.11-.05.13-.31,0-.4l-.32,0c-.47-.07-.53-.22-.53-1.25V62.87c0-1.08-.53-1.86-1.65-1.86a3.4,3.4,0,0,0-1.9.69c-.08,0-.12,0-.12-.14a6.2,6.2,0,0,1,0-.64.19.19,0,0,0-.18-.11,9.34,9.34,0,0,1-1.81.75.38.38,0,0,0,0,.32l.17.1c.35.21.35.38.35,1v2c0,1-.06,1.18-.53,1.25l-.31,0c-.1.1-.08.35,0,.4.58,0,1.06,0,1.5,0s1,0,1.47,0c.11-.05.13-.31,0-.4l-.21,0c-.47-.08-.53-.24-.53-1.27Zm8.87-1.35a.44.44,0,0,0,.18-.36c0-.14,0-.25-.11-.29H24.24c-.26,0-.26,0-.26-.26v-.83a.3.3,0,0,0-.39-.07,2.61,2.61,0,0,1-.76.86,4.46,4.46,0,0,1-1.1.58.23.23,0,0,0,0,.38h.49c.22,0,.25,0,.25.5v2.82c0,1,.24,1.74,1.56,1.74a2.19,2.19,0,0,0,1.77-.76.22.22,0,0,0-.18-.28,1.07,1.07,0,0,1-.67.25c-.89,0-1-.78-1-1.65V62.29c0-.44,0-.47.26-.47Zm5.64,3.53a2.5,2.5,0,0,1-2.35,1.53,2.63,2.63,0,0,1-2.68-2.78A2.94,2.94,0,0,1,29.09,61a2,2,0,0,1,2.08,1.88.65.65,0,0,1-.07.32c-.08.12-.4.18-1,.18H27.75c-.26,0-.29,0-.29.18a2.13,2.13,0,0,0,2.1,2.25,1.44,1.44,0,0,0,1.33-.7A.27.27,0,0,1,31.19,65.35Zm-3.63-2.61c0,.06,0,.1.19.1H29a1.46,1.46,0,0,0,.68-.1.35.35,0,0,0,.14-.29.86.86,0,0,0-.92-.9A1.42,1.42,0,0,0,27.56,62.73Zm5,2.29c0,1-.06,1.18-.53,1.25l-.25,0c-.1.1-.08.35,0,.4.53,0,1,0,1.45,0s1,0,1.82,0c.11-.05.12-.31,0-.4l-.54-.06C34.1,66.21,34,66.05,34,65v-1.9c0-.68.08-1,.4-1a1.26,1.26,0,0,1,.67.27.71.71,0,0,0,.38.11.77.77,0,0,0,.78-.81A.7.7,0,0,0,35.5,61c-.47,0-.93.42-1.36.72a.15.15,0,0,1-.14-.17c0-.12,0-.36,0-.63a.2.2,0,0,0-.19-.13,9.84,9.84,0,0,1-1.75.75.38.38,0,0,0,0,.32l.17.1c.35.21.35.38.35,1Zm6.17-1.86c0-.51,0-.64.19-.89a1.14,1.14,0,0,1,.92-.43c.83,0,1.11.56,1.11,1.27V65c0,1-.06,1.18-.53,1.27l-.21,0c-.1.1-.08.35,0,.4.49,0,1,0,1.42,0s1,0,1.57,0c.11-.05.13-.31,0-.4l-.32,0c-.47-.07-.53-.22-.53-1.25V62.87c0-1.08-.53-1.86-1.65-1.86a3.41,3.41,0,0,0-1.9.69c-.08,0-.12,0-.12-.14a6.2,6.2,0,0,1,0-.64.19.19,0,0,0-.18-.11,9.36,9.36,0,0,1-1.81.75.37.37,0,0,0,0,.32l.17.1c.35.21.35.38.35,1v2c0,1-.05,1.18-.53,1.25l-.31,0c-.1.1-.08.35,0,.4.58,0,1.06,0,1.5,0s1,0,1.47,0c.11-.05.12-.31,0-.4l-.21,0c-.47-.08-.53-.24-.53-1.27Zm10.69,3.1a1.92,1.92,0,0,1-1.39.61,1.33,1.33,0,0,1-1-.39c-.1-.1-.15-.17-.22-.17s-.17.07-.38.19a2.24,2.24,0,0,1-1.18.36,1.32,1.32,0,0,1-1.42-1.35c0-.5.19-1,1.15-1.29.49-.17,1-.36,1.53-.56.28-.1.32-.22.32-.36V63c0-.71-.17-1.32-.85-1.32a.68.68,0,0,0-.74.61.6.6,0,0,1-.26.5,1.92,1.92,0,0,1-.89.25c-.18,0-.27-.1-.27-.22s.08-.46.54-.89A3.82,3.82,0,0,1,46.55,61c1.1,0,1.78.51,1.72,1.74l-.1,2.17c0,.81.17,1.22.67,1.22a1.28,1.28,0,0,0,.47-.15C49.39,66,49.48,66.14,49.44,66.26Zm-2.63-1.82c0-.15,0-.24-.11-.24a2.28,2.28,0,0,0-.61.17.92.92,0,0,0-.75.93.78.78,0,0,0,.78.81.62.62,0,0,0,.67-.67Zm6.57-2.63a.43.43,0,0,0,.18-.36c0-.14,0-.25-.11-.29H52.08c-.26,0-.26,0-.26-.26v-.83a.3.3,0,0,0-.39-.07,2.61,2.61,0,0,1-.76.86,4.46,4.46,0,0,1-1.1.58.23.23,0,0,0,0,.38h.49c.22,0,.25,0,.25.5v2.82c0,1,.24,1.74,1.56,1.74a2.19,2.19,0,0,0,1.77-.76.22.22,0,0,0-.18-.28,1.07,1.07,0,0,1-.67.25c-.89,0-1-.78-1-1.65V62.29c0-.44,0-.47.26-.47Zm1.24-3.52a.89.89,0,1,0,.89-.88.85.85,0,0,0-.89.88m1.63,4.32c0-.57,0-1.24,0-1.7a.26.26,0,0,0-.19-.11,8.22,8.22,0,0,1-1.81.75.38.38,0,0,0,0,.32l.17.1c.35.21.35.38.35,1v2c0,1-.06,1.18-.53,1.25l-.25,0c-.1.1-.08.35,0,.4.53,0,1,0,1.46,0s1,0,1.5,0c.11-.05.12-.31,0-.4l-.25,0c-.47-.07-.53-.22-.53-1.25Zm7.38,1.25a2.85,2.85,0,0,1-3,3A2.75,2.75,0,0,1,57.65,64a3,3,0,0,1,3-3A2.79,2.79,0,0,1,63.63,63.87ZM62,64.11c0-1.17-.4-2.54-1.43-2.54-.71,0-1.27.72-1.27,2.27,0,1.27.46,2.49,1.46,2.49S62,65.18,62,64.11Zm4.68-.94c0-.51,0-.64.19-.89a1.14,1.14,0,0,1,.92-.43c.83,0,1.11.56,1.11,1.27V65c0,1-.06,1.18-.53,1.27l-.21,0c-.1.1-.08.35,0,.4.49,0,1,0,1.42,0s1,0,1.57,0c.11-.05.13-.31,0-.4l-.32,0c-.47-.07-.53-.22-.53-1.25V62.87c0-1.08-.53-1.86-1.65-1.86a3.41,3.41,0,0,0-1.9.69c-.08,0-.12,0-.12-.14a6.2,6.2,0,0,1,0-.64.19.19,0,0,0-.18-.11,9.34,9.34,0,0,1-1.81.75.38.38,0,0,0,0,.32l.17.1c.35.21.35.38.35,1v2c0,1-.05,1.18-.53,1.25l-.31,0c-.1.1-.08.35,0,.4.58,0,1.06,0,1.5,0s1,0,1.47,0c.11-.05.12-.31,0-.4l-.21,0c-.47-.08-.53-.24-.53-1.27Zm10.69,3.1a1.92,1.92,0,0,1-1.39.61,1.33,1.33,0,0,1-1-.39c-.1-.1-.15-.17-.22-.17s-.17.07-.37.19a2.24,2.24,0,0,1-1.18.36,1.32,1.32,0,0,1-1.42-1.35c0-.5.19-1,1.15-1.29.49-.17,1-.36,1.53-.56.28-.1.32-.22.32-.36V63c0-.71-.17-1.32-.85-1.32a.68.68,0,0,0-.74.61.6.6,0,0,1-.26.5,1.92,1.92,0,0,1-.89.25c-.18,0-.27-.1-.27-.22s.08-.46.54-.89A3.82,3.82,0,0,1,74.47,61c1.1,0,1.78.51,1.72,1.74l-.1,2.17c0,.81.17,1.22.67,1.22a1.28,1.28,0,0,0,.47-.15C77.31,66,77.4,66.14,77.36,66.26Zm-2.63-1.82c0-.15,0-.24-.11-.24a2.28,2.28,0,0,0-.61.17.92.92,0,0,0-.75.93.78.78,0,0,0,.78.81.62.62,0,0,0,.67-.67Zm3.45.58c0,1-.06,1.18-.53,1.25l-.29,0a.3.3,0,0,0,0,.4c.57,0,1,0,1.5,0s1,0,1.56,0a.3.3,0,0,0,0-.4l-.31,0c-.47-.07-.53-.22-.53-1.25V58.87c0-.6,0-1.46,0-2a.19.19,0,0,0-.19-.11c-.56.22-1.28.51-1.82.67-.1,0-.08.27,0,.32l.15.1c.35.21.36.31.36,1.24ZM88.86,61.2a3.54,3.54,0,0,0-1.2-.19,3.13,3.13,0,0,0-3.42,3.11,2.79,2.79,0,0,0,.81,2,2.83,2.83,0,0,0,1.93.75,2.59,2.59,0,0,0,2.45-1.52.27.27,0,0,0-.29-.25,1.54,1.54,0,0,1-1.5.74,2,2,0,0,1-2-2.2c0-1.31.82-2.09,1.61-2.09a1.74,1.74,0,0,1,1.27.85.3.3,0,0,0,.26.15c.11,0,.35-.21.35-.65a.9.9,0,0,0-.28-.71m6.85,2.67a2.85,2.85,0,0,1-3,3A2.75,2.75,0,0,1,89.73,64a3,3,0,0,1,3-3A2.79,2.79,0,0,1,95.71,63.87Zm-1.64.24c0-1.17-.4-2.54-1.43-2.54-.71,0-1.27.72-1.27,2.27,0,1.27.46,2.49,1.46,2.49S94.07,65.18,94.07,64.11Zm8.19-1.79c0-.51,0-.92,0-1.18a.16.16,0,0,0-.14-.12,7.77,7.77,0,0,1-2.18.25.26.26,0,0,0,0,.38l.22.07c.53.15.61.22.61,1.11v2.1c0,.51,0,.64-.17.78a1.39,1.39,0,0,1-.92.35c-1,0-1.14-.76-1.14-1.58V62.32a9,9,0,0,1,0-1.18.16.16,0,0,0-.14-.12,7.46,7.46,0,0,1-1.93.25c-.11,0-.11.29,0,.36l.19.05c.35.11.4.21.4,1.18V65c0,1.15.4,1.85,1.65,1.85a3.74,3.74,0,0,0,1.89-.67c.08,0,.13,0,.14.15a2.24,2.24,0,0,1,0,.51.16.16,0,0,0,.12.14,8.92,8.92,0,0,1,2.28-.53.31.31,0,0,0,0-.47,2.21,2.21,0,0,1-.6.1c-.33,0-.35-.7-.35-1.47Zm3.65.85c0-.51,0-.64.19-.89a1.14,1.14,0,0,1,.92-.43c.83,0,1.11.56,1.11,1.27V65c0,1-.06,1.18-.53,1.27l-.21,0c-.1.1-.08.35,0,.4.49,0,1,0,1.42,0s1,0,1.57,0c.11-.05.13-.31,0-.4l-.32,0c-.47-.07-.53-.22-.53-1.25V62.87c0-1.08-.53-1.86-1.65-1.86a3.41,3.41,0,0,0-1.9.69c-.08,0-.12,0-.12-.14a6.2,6.2,0,0,1,0-.64.19.19,0,0,0-.18-.11,9.34,9.34,0,0,1-1.81.75.38.38,0,0,0,0,.32l.17.1c.35.21.35.38.35,1v2c0,1-.06,1.18-.53,1.25l-.31,0c-.1.1-.08.35,0,.4.58,0,1.06,0,1.5,0s1,0,1.47,0c.11-.05.13-.31,0-.4l-.21,0c-.47-.08-.53-.24-.53-1.27Zm9.7-2a3.54,3.54,0,0,0-1.2-.19A3.13,3.13,0,0,0,111,64.12a2.79,2.79,0,0,0,.81,2,2.83,2.83,0,0,0,1.93.75,2.59,2.59,0,0,0,2.45-1.52.27.27,0,0,0-.29-.25,1.54,1.54,0,0,1-1.5.74,2,2,0,0,1-2-2.2c0-1.31.82-2.09,1.61-2.09a1.74,1.74,0,0,1,1.27.85.3.3,0,0,0,.26.15c.11,0,.35-.21.35-.65a.9.9,0,0,0-.28-.71m1.5-2.91a.89.89,0,1,0,.89-.88.85.85,0,0,0-.89.88m1.63,4.32c0-.57,0-1.24,0-1.7a.26.26,0,0,0-.19-.11,8.23,8.23,0,0,1-1.81.75.37.37,0,0,0,0,.32l.17.1c.35.21.35.38.35,1v2c0,1-.05,1.18-.53,1.25l-.25,0c-.1.1-.08.35,0,.4.53,0,1,0,1.46,0s1,0,1.5,0c.11-.05.12-.31,0-.4l-.25,0c-.47-.07-.53-.22-.53-1.25ZM120.79,65c0,1-.06,1.18-.53,1.25l-.29,0a.3.3,0,0,0,0,.4c.57,0,1,0,1.5,0s1,0,1.56,0a.3.3,0,0,0,0-.4l-.31,0c-.47-.07-.53-.22-.53-1.25V58.87c0-.6,0-1.46,0-2a.19.19,0,0,0-.19-.11c-.56.22-1.28.51-1.82.67-.1,0-.08.27,0,.32l.15.1c.35.21.36.31.36,1.24Zm12-1.15a2.85,2.85,0,0,1-3,3A2.75,2.75,0,0,1,126.85,64a3,3,0,0,1,3-3A2.79,2.79,0,0,1,132.83,63.87Zm-1.64.24c0-1.17-.4-2.54-1.43-2.54-.71,0-1.27.72-1.27,2.27,0,1.27.46,2.49,1.46,2.49S131.19,65.18,131.19,64.11Zm4.68-.94c0-.51,0-.64.19-.89a1.14,1.14,0,0,1,.92-.43c.83,0,1.11.56,1.11,1.27V65c0,1-.06,1.18-.53,1.27l-.21,0c-.1.1-.08.35,0,.4.49,0,1,0,1.42,0s1,0,1.57,0c.11-.05.12-.31,0-.4l-.32,0c-.47-.07-.53-.22-.53-1.25V62.87c0-1.08-.53-1.86-1.65-1.86a3.4,3.4,0,0,0-1.9.69c-.08,0-.12,0-.12-.14s0-.38,0-.64a.19.19,0,0,0-.18-.11,9.36,9.36,0,0,1-1.81.75.37.37,0,0,0,0,.32l.17.1c.35.21.35.38.35,1v2c0,1-.06,1.18-.53,1.25l-.31,0c-.1.1-.08.35,0,.4.58,0,1.06,0,1.5,0s1,0,1.47,0c.11-.05.13-.31,0-.4l-.21,0c-.47-.08-.53-.24-.53-1.27ZM144.94,65c0,1-.05,1.18-.53,1.25l-.25,0c-.1.1-.08.35,0,.4.53,0,1,0,1.45,0s1,0,1.47,0c.11-.05.12-.31,0-.4l-.21,0c-.47-.08-.53-.24-.53-1.27V63.16c0-.54,0-.67.18-.89a1.25,1.25,0,0,1,1-.43c.81,0,1.06.56,1.06,1.29V65c0,1-.06,1.18-.53,1.27l-.18,0c-.1.1-.08.35,0,.4.46,0,.93,0,1.39,0s1,0,1.46,0c.11-.05.12-.31,0-.4l-.21,0c-.47-.08-.53-.24-.53-1.27V63c0-.39,0-.56.17-.72a1.26,1.26,0,0,1,.93-.42c.88,0,1.13.56,1.13,1.29V65c0,1-.06,1.18-.53,1.25l-.22,0c-.1.1-.08.35,0,.4.5,0,1,0,1.43,0s1,0,1.58,0c.06-.05.12-.31,0-.4l-.31,0c-.47-.07-.53-.22-.53-1.25V62.87c0-1.08-.53-1.86-1.7-1.86a3.23,3.23,0,0,0-1.78.65.8.8,0,0,1-.31.14c-.06,0-.14-.08-.22-.21a1.6,1.6,0,0,0-1.25-.58,3.52,3.52,0,0,0-2,.69c-.08,0-.12,0-.12-.14a6.2,6.2,0,0,1,0-.64.19.19,0,0,0-.18-.11,9,9,0,0,1-1.81.75.37.37,0,0,0,0,.32l.17.1c.35.21.35.38.35,1Zm16.21-1.15a2.85,2.85,0,0,1-3,3A2.75,2.75,0,0,1,155.17,64a3,3,0,0,1,3-3A2.79,2.79,0,0,1,161.15,63.87Zm-1.64.24c0-1.17-.4-2.54-1.43-2.54-.71,0-1.27.72-1.27,2.27,0,1.27.46,2.49,1.46,2.49S159.51,65.18,159.51,64.11Zm4.68-.94c0-.51,0-.64.19-.89a1.14,1.14,0,0,1,.92-.43c.83,0,1.11.56,1.11,1.27V65c0,1-.06,1.18-.53,1.27l-.21,0c-.1.1-.08.35,0,.4.49,0,1,0,1.42,0s1,0,1.57,0c.11-.05.12-.31,0-.4l-.32,0c-.47-.07-.53-.22-.53-1.25V62.87c0-1.08-.53-1.86-1.65-1.86a3.41,3.41,0,0,0-1.9.69c-.08,0-.12,0-.12-.14a6.2,6.2,0,0,1,0-.64.19.19,0,0,0-.18-.11,9.34,9.34,0,0,1-1.81.75.38.38,0,0,0,0,.32l.17.1c.35.21.35.38.35,1v2c0,1-.06,1.18-.53,1.25l-.3,0c-.1.1-.08.35,0,.4.58,0,1.06,0,1.5,0s1,0,1.47,0c.11-.05.13-.31,0-.4l-.21,0c-.47-.08-.53-.24-.53-1.27ZM175,62.32c0-.51,0-.92,0-1.18a.16.16,0,0,0-.14-.12,7.77,7.77,0,0,1-2.18.25.26.26,0,0,0,0,.38l.22.07c.53.15.61.22.61,1.11v2.1c0,.51,0,.64-.17.78a1.39,1.39,0,0,1-.92.35c-1,0-1.14-.76-1.14-1.58V62.32a9,9,0,0,1,0-1.18.16.16,0,0,0-.14-.12,7.46,7.46,0,0,1-1.93.25c-.11,0-.11.29,0,.36l.19.05c.35.11.4.21.4,1.18V65c0,1.15.4,1.85,1.65,1.85a3.74,3.74,0,0,0,1.89-.67c.08,0,.13,0,.14.15a2.24,2.24,0,0,1,0,.51.16.16,0,0,0,.12.14,8.92,8.92,0,0,1,2.28-.53.31.31,0,0,0,0-.47,2.21,2.21,0,0,1-.6.1c-.33,0-.35-.7-.35-1.47Zm2.2,2.71c0,1-.06,1.18-.53,1.25l-.25,0c-.1.1-.08.35,0,.4.53,0,1,0,1.45,0s1,0,1.47,0c.11-.05.12-.31,0-.4l-.21,0c-.47-.08-.53-.24-.53-1.27V63.16c0-.54,0-.67.18-.89a1.25,1.25,0,0,1,1-.43c.81,0,1.06.56,1.06,1.29V65c0,1-.06,1.18-.53,1.27l-.18,0c-.1.1-.08.35,0,.4.46,0,.93,0,1.39,0s1,0,1.46,0c.11-.05.12-.31,0-.4l-.21,0c-.47-.08-.53-.24-.53-1.27V63c0-.39,0-.56.17-.72a1.26,1.26,0,0,1,.93-.42c.88,0,1.13.56,1.13,1.29V65c0,1-.06,1.18-.53,1.25l-.22,0c-.1.1-.08.35,0,.4.5,0,1,0,1.43,0s1,0,1.58,0c.06-.05.12-.31,0-.4l-.31,0c-.47-.07-.53-.22-.53-1.25V62.87c0-1.08-.53-1.86-1.7-1.86a3.23,3.23,0,0,0-1.78.65.79.79,0,0,1-.31.14c-.06,0-.14-.08-.22-.21A1.6,1.6,0,0,0,180.8,61a3.52,3.52,0,0,0-2,.69c-.08,0-.12,0-.12-.14s0-.38,0-.64a.19.19,0,0,0-.18-.11,9,9,0,0,1-1.81.75.37.37,0,0,0,0,.32l.17.1c.35.21.35.38.35,1Zm15.26.32a2.5,2.5,0,0,1-2.35,1.53,2.63,2.63,0,0,1-2.68-2.78A2.94,2.94,0,0,1,190.39,61a2,2,0,0,1,2.08,1.88.65.65,0,0,1-.07.32c-.08.12-.4.18-1,.18H189c-.27,0-.29,0-.29.18a2.13,2.13,0,0,0,2.1,2.25,1.44,1.44,0,0,0,1.33-.7A.27.27,0,0,1,192.49,65.35Zm-3.63-2.61c0,.06,0,.1.19.1h1.27a1.45,1.45,0,0,0,.68-.1.35.35,0,0,0,.14-.29.86.86,0,0,0-.92-.9A1.42,1.42,0,0,0,188.86,62.73Zm6.46.43c0-.51,0-.64.19-.89a1.14,1.14,0,0,1,.92-.43c.83,0,1.11.56,1.11,1.27V65c0,1-.06,1.18-.53,1.27l-.21,0c-.1.1-.08.35,0,.4.49,0,1,0,1.42,0s1,0,1.57,0c.11-.05.12-.31,0-.4l-.32,0c-.47-.07-.53-.22-.53-1.25V62.87c0-1.08-.53-1.86-1.65-1.86a3.4,3.4,0,0,0-1.9.69c-.08,0-.12,0-.12-.14a6.2,6.2,0,0,1,0-.64.19.19,0,0,0-.18-.11,9.34,9.34,0,0,1-1.81.75.36.36,0,0,0,0,.32l.17.1c.35.21.35.38.35,1v2c0,1-.06,1.18-.53,1.25l-.31,0c-.1.1-.08.35,0,.4.58,0,1.06,0,1.5,0s1,0,1.47,0c.11-.05.13-.31,0-.4l-.21,0c-.47-.08-.53-.24-.53-1.27Zm8.87-1.35a.44.44,0,0,0,.18-.36c0-.14,0-.25-.11-.29h-1.38c-.26,0-.26,0-.26-.26v-.83a.3.3,0,0,0-.39-.07,2.61,2.61,0,0,1-.76.86,4.46,4.46,0,0,1-1.1.58.23.23,0,0,0,0,.38h.49c.22,0,.25,0,.25.5v2.82c0,1,.24,1.74,1.56,1.74a2.19,2.19,0,0,0,1.77-.76.22.22,0,0,0-.18-.28,1.07,1.07,0,0,1-.67.25c-.89,0-1-.78-1-1.65V62.29c0-.44,0-.47.26-.47Zm.86,4.62a2.61,2.61,0,0,0,1.58.44c1.1,0,2.17-.53,2.17-1.74s-.79-1.57-1.54-1.93c-.53-.25-.93-.54-.93-.95a.74.74,0,0,1,.78-.72c.54,0,1,.53,1.19,1.17a.28.28,0,0,0,.38-.07,3.22,3.22,0,0,0-.21-1.35,3,3,0,0,0-1.29-.28c-1.15,0-2.08.64-2.07,1.72,0,.89.75,1.41,1.47,1.75.49.24.95.57.95,1.08a.75.75,0,0,1-.78.78c-.74,0-1.25-.74-1.5-1.52a.28.28,0,0,0-.39,0,4,4,0,0,0,.19,1.57m13.29-.17a1.92,1.92,0,0,1-1.39.61,1.33,1.33,0,0,1-1-.39c-.1-.1-.15-.17-.22-.17s-.17.07-.38.19a2.24,2.24,0,0,1-1.18.36,1.32,1.32,0,0,1-1.42-1.35c0-.5.19-1,1.15-1.29.49-.17,1-.36,1.53-.56.28-.1.32-.22.32-.36V63c0-.71-.17-1.32-.85-1.32a.68.68,0,0,0-.74.61.6.6,0,0,1-.27.5A1.92,1.92,0,0,1,213,63c-.18,0-.26-.1-.26-.22s.08-.46.54-.89a3.82,3.82,0,0,1,2.14-.88c1.1,0,1.78.51,1.72,1.74l-.1,2.17c0,.81.17,1.22.67,1.22a1.27,1.27,0,0,0,.47-.15C218.28,66,218.38,66.14,218.34,66.26Zm-2.63-1.82c0-.15,0-.24-.11-.24a2.26,2.26,0,0,0-.61.17.92.92,0,0,0-.75.93.78.78,0,0,0,.78.81.62.62,0,0,0,.67-.67Zm5-1.28c0-.51,0-.64.19-.89a1.14,1.14,0,0,1,.92-.43c.83,0,1.11.56,1.11,1.27V65c0,1-.06,1.18-.53,1.27l-.21,0c-.1.1-.08.35,0,.4.49,0,1,0,1.42,0s1,0,1.57,0c.11-.05.12-.31,0-.4l-.32,0c-.47-.07-.53-.22-.53-1.25V62.87c0-1.08-.53-1.86-1.65-1.86a3.41,3.41,0,0,0-1.9.69c-.08,0-.12,0-.12-.14a6.21,6.21,0,0,1,0-.64.19.19,0,0,0-.18-.11,9.36,9.36,0,0,1-1.81.75.37.37,0,0,0,0,.32l.17.1c.35.21.35.38.35,1v2c0,1-.05,1.18-.53,1.25l-.31,0c-.1.1-.08.35,0,.4.58,0,1.06,0,1.5,0s1,0,1.47,0c.11-.05.12-.31,0-.4l-.21,0c-.47-.08-.53-.24-.53-1.27Zm11.67,3.32a8.64,8.64,0,0,0-2.2.53.23.23,0,0,1-.17-.15l0-.21a1,1,0,0,0,0-.39H230a2.67,2.67,0,0,1-1.6.63,2.57,2.57,0,0,1-2.57-2.67,3.18,3.18,0,0,1,3.34-3.2,2.79,2.79,0,0,1,.81.1c.05,0,.08-.07.08-.22V59.06c0-.93,0-1-.32-1.21l-.19-.12c-.08-.06-.1-.28,0-.32.54-.15,1.27-.44,1.82-.67a.19.19,0,0,1,.19.11c0,.56,0,1.42,0,2v5.55c0,1.27.1,1.7.33,1.7a1.68,1.68,0,0,0,.58-.12C232.56,66.07,232.58,66.4,232.43,66.49Zm-2.36-3.78a1,1,0,0,0-.18-.67,1.12,1.12,0,0,0-.93-.47c-.94,0-1.54.93-1.54,2.1,0,1.43.75,2.38,1.74,2.38a1.32,1.32,0,0,0,.82-.31.55.55,0,0,0,.1-.39Zm6.28,3.73a2.61,2.61,0,0,0,1.58.44c1.1,0,2.17-.53,2.17-1.74s-.79-1.57-1.54-1.93c-.53-.25-.93-.54-.93-.95a.74.74,0,0,1,.78-.72c.54,0,1,.53,1.19,1.17a.28.28,0,0,0,.38-.07,3.22,3.22,0,0,0-.21-1.35,3,3,0,0,0-1.29-.28c-1.15,0-2.08.64-2.07,1.72,0,.89.75,1.41,1.47,1.75.49.24.95.57.95,1.08a.75.75,0,0,1-.78.78c-.74,0-1.25-.74-1.5-1.52a.28.28,0,0,0-.39,0,4,4,0,0,0,.19,1.57m5.11-8.13a.89.89,0,1,0,.89-.88.85.85,0,0,0-.89.88m1.63,4.32c0-.57,0-1.24,0-1.7a.26.26,0,0,0-.2-.11,8.2,8.2,0,0,1-1.81.75.37.37,0,0,0,0,.32l.17.1c.35.21.35.38.35,1v2c0,1-.06,1.18-.53,1.25l-.25,0c-.1.1-.08.35,0,.4.53,0,1,0,1.46,0s1,0,1.5,0c.11-.05.12-.31,0-.4l-.25,0c-.47-.07-.53-.22-.53-1.25Zm5.18-.81a.44.44,0,0,0,.18-.36c0-.14,0-.25-.11-.29H247c-.27,0-.27,0-.27-.26v-.83a.29.29,0,0,0-.39-.07,2.61,2.61,0,0,1-.76.86,4.46,4.46,0,0,1-1.1.58.23.23,0,0,0,0,.38H245c.22,0,.25,0,.25.5v2.82c0,1,.24,1.74,1.56,1.74a2.19,2.19,0,0,0,1.77-.76.22.22,0,0,0-.18-.28,1.07,1.07,0,0,1-.67.25c-.89,0-1-.78-1-1.65V62.29c0-.44,0-.47.27-.47Zm5.64,3.53a2.5,2.5,0,0,1-2.35,1.53,2.63,2.63,0,0,1-2.68-2.78A2.94,2.94,0,0,1,251.82,61a2,2,0,0,1,2.08,1.88.63.63,0,0,1-.07.32c-.08.12-.4.18-1,.18h-2.41c-.26,0-.29,0-.29.18a2.13,2.13,0,0,0,2.1,2.25,1.44,1.44,0,0,0,1.34-.7A.27.27,0,0,1,253.91,65.35Zm-3.63-2.61c0,.06,0,.1.19.1h1.27a1.45,1.45,0,0,0,.68-.1.35.35,0,0,0,.14-.29.86.86,0,0,0-.92-.9A1.42,1.42,0,0,0,250.29,62.73Zm4.46,3.7a2.61,2.61,0,0,0,1.58.44c1.1,0,2.17-.53,2.17-1.74s-.79-1.57-1.54-1.93c-.53-.25-.93-.54-.93-.95a.74.74,0,0,1,.78-.72c.54,0,1,.53,1.2,1.17a.28.28,0,0,0,.37-.07,3.22,3.22,0,0,0-.21-1.35,3,3,0,0,0-1.29-.28c-1.15,0-2.09.64-2.07,1.72,0,.89.75,1.41,1.47,1.75.49.24.95.57.95,1.08a.74.74,0,0,1-.78.78c-.74,0-1.25-.74-1.5-1.52a.28.28,0,0,0-.39,0,4,4,0,0,0,.19,1.57"/></svg>