<svg version="1.1" id="Logo" xmlns="http://www.w3.org/2000/svg" x="0" y="0" viewBox="0 0 312 52" xml:space="preserve"><style>.st0{fill:#027c71}</style><path class="st0" d="M13 45.8l11.7 6.1 11.8-6.1-11.8-6.2z"/><path class="st0" d="M36.5 23.6l-11.8-6.2L13 23.6l8.4 4.5-21 11 6.7 3.5 17.6-9.3 17.7 9.3 6.6-3.5-21-11z"/><path class="st0" d="M7.1 20.5l17.6-9.3 17.7 9.3L49 17 28 6l4-2.1L24.7.1l-7.2 3.8L21.4 6 .4 17zm77.7-4.3v-5.6H68.5v5.6h16.3zm-3-3.6v1.5H71.4v-1.5h10.4zm84.8 5.4v-4.8h-3V18c0 2.9-.7 5.3-2 6.8H158c-1.3-1.5-2-4.1-2-6.8v-4.8h-3V18c0 2.6.5 5 1.4 6.8h-6.7v3h24.7v-3h-7.2c1-1.9 1.4-4.3 1.4-6.8zm103 1l-1.9-1.8c-.4.4-.8.7-1.3 1v-5.4h2.3v-2.6h-2.3v-5h-3v5h-1V7.4h-2.6v3.9c0 1.9-.8 2.9-1.9 3.7.2.4.9 1.6 1.3 2.2 1.8-1.1 2.8-2.7 3.1-4.5h1.1v6h-4.3v2.6h4.3v7.4h3v-7.9c1.3-.3 2.4-.9 3.2-1.8zM65.2 17.2v11.6H68v-9.5h17v3.1c0 2.6-.7 4.3-1.6 5.3.4.4 1.7 1.8 2 2.1 1.9-2.1 2.5-4.5 2.5-7.7v-4.8H65.2zm187.3 2.1h2.2V11h-6.5v-1h7.6V7.4h-2.5V5.2h-2.8v2.2h-2.2V5.2h-3v2.2H238V10h7.2v1h-6.1v8.3h10.5v1.4h-11.9v2.4h3.9s-.6.8-1 1.5c.9.6 2.3 2.2 2.8 3.2.4-.3 1.7-1 2-1.2-.8-1.3-1.8-2.6-2.9-3.5h7v1c0 1.7-.4 2.9-1.1 3.6.4.4 1.6 1.7 2 2.1 1.3-1.3 2-3.1 2-5.9v-.8h3.5v-2.4h-3.5v-1.4zm-.7-2h-3.7v-1.2h3.7v1.2zm0-4.3v1.2h-3.7V13h3.7zm-6.6 0v1.2h-3.3V13h3.3zm-3.3 3.1h3.3v1.2h-3.3v-1.2z"/><path class="st0" d="M273.1 5.2h-2.7v5.1c0 1.5-1.1 3.3-2.4 4 .3.5.9 1.7 1.4 2.4 1.8-1.1 3.1-2.9 3.6-5h.7c-.3 3.4-1 6-5.4 9.1l1.5 2.1c4.8-3.4 6-6.3 6.5-11.2h.8c0 1.3-.2 3.5-.6 5.2-1 3.8-2.2 6-6.6 9.3l1.6 2.1c5-3.7 6.4-6.4 7.6-10.7.5-2 .7-4.4.7-5.9h.7v10.6c0 2.2-1 3.8-3.4 5l1.1 2.4c2.9-1.3 4.9-3.9 4.9-7.4V9h-9.9V5.2zM78 5.2h-3.2V7H64.4v2.4h24.4V7H78zm232.2 13.3v-5.8h1.3V7.6H306V5.2h-3v2.4h-4.8v1.5c-1.4-1-2.5-2.3-3.1-3.8h-3.2c-.8 2.1-3.1 4.3-5.5 5.2.3.9.7 2 .9 2.7.6-.2 1.1-.4 1.3-.6v13.2h-1.8v2.5h2.9c1.5 0 3.7-.4 5.4-1.4V28h2.4v-6h-2.4v2.2c-1 .7-2.6 1.2-3.8 1.5v-4.6h6.2v-8.8h-2.7v-1.9h-2.5v1.9h-3.1c1.7-1 3.3-2.5 4.4-4.1.9 1.4 2.3 2.7 3.5 3.5.5-.7 1.2-2 1.2-2v3.1h1.1v16.1h2.7v-1.1h5.9v1.1h2.7v-8.4h-8.6v-1.9h8.1zm-18.9.4v-1.4h3.4v1.4h-3.4zm3.5-3.3h-3.4v-1.4h3.4v1.4zm7.4.6v-2h5.3v2h-5.3zm6.6-6.1v1.7H301v-1.7h7.8zm-.8 12.6v2.7h-5.9v-2.7h5.9zM133.8 5.2h-3.1v3.2h-10.5V11h24.7V8.4h-11.1zm37.7 3.1h-10V5.2h-3.1v3.1h-9.6v2.8h22.7zm66.5 5.9v-2.6h-1.6V5.2h-3.2v6.4h-2.3v2.6h2.3v14.6h3.2V14.2zM70.7 20.3v6.6h2.7V26h6.4v.9h2.6v-6.6H70.7zm2.7 3.5v-1.7h6.4v1.7h-6.4zm60.4-10v-2.1h-3.1v2.1h-8.3v12.8h3.1V16.1h5.3v12.7h3.1V16.1h5.8v4.1c0 2.6-.5 4-1.6 5.3.4.4 1.4 1.5 2 2.1 1.7-1.7 2.5-4 2.5-7.6v-6.2h-8.8zm-20.9 8.4h3.4v-2.4h-3.4V17h3.4v-2.4h-3.4v-2.9h4V9.3h-3.3c.4-1.1.7-2.7.6-4h-2.6c0 1.2-.2 3-1 4h-3.7v-4h-2.6v3.9c0 1.6-1 3.4-2.8 4.4l1.2 2.3c.6-.3 1.2-.8 1.5-1.1v14h2.6v-1.1h10.3v-2.5h-4.3v-3zm-2.9-2.3h-3.2v-2.8h3.2v2.8zm-3.1-5.2v-2.9h3.2v2.9h-3.2zm0 7.5h3.2v3h-3.2v-3z"/><path class="st0" d="M98.4 11.7h4.7V9.3h-4.7V5.2h-2.6v4.1h-3.4v2.4h3.4v.7c-.2 3.9-1.9 10.3-4.6 14.2 0 0 1.3.9 2.1 1.5 2.6-3.7 4.8-10.5 5.1-15.6v-.8zm124.3 14.5c-1.7-.1-4.1-1-6.4-2.3 1.1-1.5 1.7-3.2 1.7-5.1v-.6h8.9V8.5H218V5.2h-3v3.4h-9v9.6h9v.6c0 1.3-.4 2.5-1.1 3.5-1.3-.9-2.6-2.1-3.6-3.2H206v2.5h3c1 .9 2.1 1.8 3.1 2.4-2.1 1.4-5.1 2-7.9 2v3c3.4 0 7.5-.9 10.4-3.3 2.9 1.7 5.8 2.9 8 3.1 1.3.1 4.8.1 5.9.1v-2.6c-1.6-.1-4.3 0-5.8-.1zm1.1-15.1v4.5H218v-4.5h5.8zM209 15.6v-4.5h6v4.5h-6zm-28.9-6.9H200V6.2h-22.7v13c0 3.5-.8 5.8-2.4 7.3l2 2c2.1-2.1 3.2-5.3 3.2-9.8v-10z"/><path class="st0" d="M191.5 25.7v-1.9h7v-2.3h-7v-1.3h-2.9v5.5h-3.2v-4h-2.8v4h-3.1v2.5h20.7v-2.5zm-4.9-5.5v-4.3c.5.7 1.2 1.3 2 1.7l1.1-1.8c-.5-.2-1.5-.7-1.9-1.2h1.6v-2h-2.7v-.9c1.2-.2 2-.5 2.7-.9L188.3 9c-.8.5-1.9.7-3 .7h-4.5v2h3.4v.8h-3.4v2h2.8c-.5 1.1-1.6 2.2-3.2 3.2l1.1 1.8c1.2-.7 2.2-1.6 2.7-2.5v3.2h2.4z"/><path class="st0" d="M195.5 20.2v-3.9c.7 1.3 2 2.4 3.6 3.3.2-.3.9-1.7 1.1-1.9-1.4-.7-3-1.9-3.5-3.2h3v-2h-4.1v-.8c1.6-.1 2.8-.4 3.8-1L198.2 9c-.8.5-1.7.7-3.2.7h-4.9v2h2.9v.8h-2.9v2h1.9c-.5 1.1-1.6 2.2-3.2 3.2l1.1 1.8c1.4-.9 2.4-1.9 3-3.2v3.9h2.6zM100.7 23v2.3h-2.3c1.6-3.8 2.8-8.3 2.9-11.3H99c-.2 3.2-1.4 7.6-3.2 11.3v2.4h7.3V23h-2.4zM72.4 36.6h-1.7L67 40.4l-1.1 1.3v-5.1h-1.5v10.3h1.5v-3.5l1.3-1.3 3.8 4.8h1.7l-4.6-5.8zm6 0h-.9l-4.1 10.3h1.5l1-2.7h4.5l1 2.7h1.5l-4.1-10.3h-.4zm-2.1 6.5l1.8-4.8 1.8 4.8h-3.6zM90.6 37c-.7-.4-1.4-.6-2.3-.6-.9 0-1.6.2-2.3.6-.7.4-1.2 1-1.5 1.7-.4.7-.6 1.6-.6 2.7v.7c0 1 .2 1.9.6 2.7.4.7.9 1.3 1.5 1.7.7.4 1.4.6 2.3.6.9 0 1.6-.2 2.3-.6.7-.4 1.2-1 1.5-1.7.4-.7.5-1.6.5-2.7v-.7c0-1-.2-1.9-.5-2.7-.4-.7-.9-1.3-1.5-1.7zm.6 5.1c0 .8-.1 1.5-.3 2.1-.2.6-.6 1-1 1.3-.4.3-1 .4-1.6.4-.6 0-1.1-.1-1.5-.4-.4-.3-.8-.7-1-1.3-.2-.6-.4-1.3-.4-2.1v-.7c0-.8.1-1.5.4-2.1.2-.6.6-1 1-1.3.4-.3 1-.4 1.5-.4.6 0 1.1.1 1.6.4.4.3.8.7 1 1.3.2.6.3 1.3.3 2.1v.7zm10.5-1.1h-5.4v-4.4h-1.5v10.3h1.5v-4.8h5.4v4.8h1.5V36.6h-1.5zm10.1.8c-.5-.3-1.2-.5-2-.8-.6-.2-1.1-.3-1.4-.5-.4-.2-.6-.4-.8-.6-.2-.2-.3-.5-.3-.8 0-.3.1-.6.2-.9.2-.2.4-.4.7-.6.3-.1.7-.2 1.3-.2.5 0 1 .1 1.3.3.4.2.6.4.8.7.2.3.3.6.3 1h1.5c0-.5-.1-1-.4-1.5-.3-.5-.7-.9-1.3-1.2-.6-.3-1.3-.4-2.1-.4-.7 0-1.4.1-1.9.4-.6.2-1 .6-1.3 1-.3.4-.5.9-.5 1.4 0 .4.1.8.2 1.1.2.3.4.6.7.8.3.2.7.5 1.1.6.4.2.9.4 1.4.5.7.2 1.2.4 1.6.6.4.2.6.4.8.6.1.2.2.5.2.8 0 .3-.1.6-.3.9-.2.2-.4.4-.8.6-.3.1-.8.2-1.3.2-.3 0-.7 0-1-.1-.3-.1-.6-.2-.8-.4l-.6-.6c-.1-.3-.2-.6-.2-.9h-1.4c0 .5.1 1 .4 1.4.2.4.6.7.9 1 .4.3.8.5 1.3.6.5.1 1 .2 1.5.2.8 0 1.4-.1 2-.3.6-.2 1-.5 1.3-1 .3-.4.5-.9.5-1.5 0-.5-.1-1-.4-1.4-.3-.3-.7-.7-1.2-1zm3.8-5.2h1.4v10.3h-1.4zm10.6 6.9c0 .5-.1 1-.3 1.3-.2.3-.5.6-.9.8-.4.2-.8.3-1.3.3s-.9-.1-1.3-.3c-.4-.2-.7-.4-.9-.8-.2-.3-.3-.8-.3-1.3v-7h-1.4v7c0 .8.2 1.4.5 1.9s.8.9 1.4 1.2c.6.3 1.3.4 2 .4s1.3-.1 1.9-.4c.6-.3 1.1-.6 1.4-1.2.4-.5.5-1.2.5-1.9v-7H126v7zm11 1.1l-5.4-8h-1.5v10.3h1.5v-8l5.4 8h1.4V36.6h-1.4zm5.6-5.3c.2-.6.5-1 1-1.3.4-.3 1-.5 1.6-.5.6 0 1 .1 1.4.3.4.2.6.4.8.7.2.3.3.6.4 1h1.4c-.1-.6-.3-1.2-.6-1.6-.3-.5-.8-.9-1.3-1.1-.6-.3-1.3-.4-2.1-.4-.9 0-1.7.2-2.4.6-.6.4-1.1.9-1.5 1.7-.3.7-.5 1.6-.5 2.6v.8c0 1 .2 1.9.6 2.6.4.7.9 1.3 1.6 1.7.7.4 1.5.6 2.3.6.8 0 1.5-.1 2-.3.5-.2.9-.4 1.2-.6.3-.2.5-.4.6-.6v-3.8h-3.9v1.1h2.5v2.3c-.1.1-.2.2-.4.3-.2.1-.4.2-.7.3-.3.1-.7.1-1.2.1-.6 0-1.2-.2-1.6-.5-.5-.3-.8-.7-1.1-1.3-.3-.6-.4-1.2-.4-2v-.8c0-.7.1-1.3.3-1.9zm23.3-2.7h-.7l-3.5 8.4-3.5-8.4h-1.9v10.3h1.4v-4.1l-.1-4.2 3.5 8.3h1.1l3.6-8.4-.1 4.3v4.1h1.4V36.6h-.5zm10 6.9c0 .5-.1 1-.3 1.3-.2.3-.5.6-.9.8-.4.2-.8.3-1.3.3s-.9-.1-1.3-.3c-.4-.2-.7-.4-.9-.8-.2-.3-.3-.8-.3-1.3v-7h-1.4v7c0 .8.2 1.4.5 1.9s.8.9 1.4 1.2c.6.3 1.3.4 2 .4s1.3-.1 1.9-.4c.6-.3 1.1-.6 1.4-1.2.4-.5.5-1.2.5-1.9v-7h-1.5v7zm9.7-1.7c-.5-.3-1.2-.5-2-.8-.6-.2-1.1-.3-1.4-.5-.4-.2-.6-.4-.8-.6-.2-.2-.3-.5-.3-.8 0-.3.1-.6.2-.9.2-.2.4-.4.7-.6.3-.1.7-.2 1.3-.2.5 0 1 .1 1.3.3.4.2.6.4.8.7.2.3.3.6.3 1h1.5c0-.5-.1-1-.4-1.5-.3-.5-.7-.9-1.3-1.2-.6-.3-1.3-.4-2.1-.4-.7 0-1.4.1-1.9.4-.6.2-1 .6-1.3 1-.3.4-.5.9-.5 1.4 0 .4.1.8.2 1.1.2.3.4.6.7.8.3.2.7.5 1.1.6.4.2.9.4 1.4.5.7.2 1.2.4 1.6.6.4.2.6.4.8.6.1.2.2.5.2.8 0 .3-.1.6-.3.9-.2.2-.4.4-.8.6-.3.1-.8.2-1.3.2-.3 0-.7 0-1-.1-.3-.1-.6-.2-.8-.4l-.6-.6c-.1-.3-.2-.6-.2-.9h-1.4c0 .5.1 1 .4 1.4.2.4.6.7.9 1 .4.3.8.5 1.3.6.5.1 1 .2 1.5.2.8 0 1.4-.1 2-.3.6-.2 1-.5 1.3-1 .3-.4.5-.9.5-1.5 0-.5-.1-1-.4-1.4-.2-.3-.6-.7-1.2-1zm5.2.3h4.7V41H191v-3.3h5.4v-1.1h-6.8v10.3h6.9v-1.1H191zm14 1.4c0 .5-.1 1-.3 1.3-.2.3-.5.6-.9.8-.4.2-.8.3-1.3.3s-.9-.1-1.3-.3c-.4-.2-.7-.4-.9-.8-.2-.3-.3-.8-.3-1.3v-7h-1.4v7c0 .8.2 1.4.5 1.9s.8.9 1.4 1.2c.6.3 1.3.4 2 .4s1.3-.1 1.9-.4c.6-.3 1.1-.6 1.4-1.2.4-.5.5-1.2.5-1.9v-7H205v7zm13.5-6.9h-.7l-3.5 8.4-3.5-8.4h-1.9v10.3h1.4v-4.1l-.1-4.2 3.6 8.3h1l3.6-8.4-.1 4.3v4.1h1.4V36.6h-.5zm14.7.4c-.7-.4-1.4-.6-2.3-.6-.9 0-1.6.2-2.3.6-.7.4-1.2 1-1.5 1.7-.4.7-.6 1.6-.6 2.7v.7c0 1 .2 1.9.6 2.7.4.7.9 1.3 1.5 1.7.7.4 1.4.6 2.3.6.9 0 1.6-.2 2.3-.6.7-.4 1.2-1 1.5-1.7.4-.7.5-1.6.5-2.7v-.7c0-1-.2-1.9-.5-2.7-.3-.7-.8-1.3-1.5-1.7zm.6 5.1c0 .8-.1 1.5-.3 2.1-.2.6-.6 1-1 1.3-.4.3-1 .4-1.6.4-.6 0-1.1-.1-1.5-.4-.4-.3-.8-.7-1-1.3-.2-.6-.4-1.3-.4-2.1v-.7c0-.8.1-1.5.4-2.1.2-.6.6-1 1-1.3.4-.3 1-.4 1.5-.4.6 0 1.1.1 1.6.4.4.3.8.7 1 1.3.2.6.3 1.3.3 2.1v.7zm4.8-5.5h-1.2v10.3h1.5v-4.6h4.5v-1.1h-4.5v-3.5h5.3v-1.1h-5.3zm18.9 4.4h-5.4v-4.4h-1.5v10.3h1.5v-4.8h5.4v4.8h1.5V36.6h-1.5zm4.2-4.4h1.4v10.3h-1.4zm10.2 5.2c-.5-.3-1.2-.5-2-.8-.6-.2-1.1-.3-1.4-.5-.4-.2-.6-.4-.8-.6-.2-.2-.3-.5-.3-.8 0-.3.1-.6.2-.9.2-.2.4-.4.7-.6.3-.1.7-.2 1.3-.2.5 0 1 .1 1.3.3.4.2.6.4.8.7.2.3.3.6.3 1h1.5c0-.5-.1-1-.4-1.5-.3-.5-.7-.9-1.3-1.2-.6-.3-1.3-.4-2.1-.4-.7 0-1.4.1-1.9.4-.6.2-1 .6-1.3 1-.3.4-.5.9-.5 1.4 0 .4.1.8.2 1.1.2.3.4.6.7.8.3.2.7.5 1.1.6.4.2.9.4 1.4.5.7.2 1.2.4 1.6.6.4.2.6.4.8.6.1.2.2.5.2.8 0 .3-.1.6-.3.9-.2.2-.4.4-.8.6-.3.1-.8.2-1.3.2-.3 0-.7 0-1-.1-.3-.1-.6-.2-.8-.4l-.6-.6c-.1-.3-.2-.6-.2-.9h-1.4c0 .5.1 1 .4 1.4.2.4.6.7.9 1 .4.3.8.5 1.3.6.5.1 1 .2 1.5.2.8 0 1.4-.1 2-.3.6-.2 1-.5 1.3-1 .3-.4.5-.9.5-1.5 0-.5-.1-1-.4-1.4-.3-.3-.6-.7-1.2-1zm6.1-5.2h-3.5v1.1h3.5v9.2h1.4v-9.2h3.5v-1.1h-3.5zm12.1.4c-.7-.4-1.4-.6-2.3-.6-.9 0-1.6.2-2.3.6-.7.4-1.2 1-1.5 1.7-.4.7-.6 1.6-.6 2.7v.7c0 1 .2 1.9.6 2.7.4.7.9 1.3 1.5 1.7.7.4 1.4.6 2.3.6.9 0 1.6-.2 2.3-.6.7-.4 1.2-1 1.5-1.7.4-.7.5-1.6.5-2.7v-.7c0-1-.2-1.9-.5-2.7-.3-.7-.8-1.3-1.5-1.7zm.7 5.1c0 .8-.1 1.5-.3 2.1-.2.6-.6 1-1 1.3-.4.3-1 .4-1.6.4-.6 0-1.1-.1-1.5-.4-.4-.3-.8-.7-1-1.3-.2-.6-.4-1.3-.4-2.1v-.7c0-.8.1-1.5.4-2.1.2-.6.6-1 1-1.3.4-.3 1-.4 1.5-.4.6 0 1.1.1 1.6.4.4.3.8.7 1 1.3.2.6.3 1.3.3 2.1v.7zm9.8-.2c.4-.3.7-.6.9-1 .2-.4.3-.8.3-1.3 0-.7-.1-1.2-.4-1.7-.3-.5-.7-.8-1.3-1-.6-.2-1.3-.4-2.1-.4h-3.6v10.3h1.4v-4.2h2.5l2.3 4.2h1.5v-.1l-2.6-4.4c.5 0 .8-.2 1.1-.4zm-4.8-.3v-3.9h2.1c.8 0 1.4.2 1.8.5.4.4.6.8.6 1.4 0 .4-.1.7-.3 1-.2.3-.4.5-.8.7-.3.2-.8.3-1.3.3h-2.1zm14.1-5l-2.8 5.1-2.8-5.1h-1.7l3.8 6.4v3.9h1.4V43l3.8-6.4z"/></svg>