<svg width="25" height="30" viewBox="0 0 25 30" fill="none" xmlns="http://www.w3.org/2000/svg">
<path d="M16.0028 23.0252L11.5614 19.5798H11.4776C10.3045 20.8403 8.71228 21.5126 6.95251 21.5126C5.19273 21.5126 3.51676 20.7563 2.34357 19.6639C1.17039 18.4034 0.5 16.8067 0.5 15.042C0.5 13.2773 1.25419 11.5966 2.42737 10.4202C3.60056 9.2437 5.19273 8.48739 7.03631 8.48739C8.87988 8.48739 10.4721 9.2437 11.5614 10.4202L16.0028 6.97479C15.5838 6.30252 15.4162 5.54622 15.4162 4.62185C15.4162 3.36134 15.919 2.18487 16.757 1.34454C17.595 0.504202 18.7681 0 20.1089 0C21.4497 0 22.5391 0.504202 23.4609 1.34454C24.2989 2.18487 24.8017 3.36134 24.8017 4.62185C24.8017 5.88235 24.2989 7.05882 23.4609 7.98319C22.6229 8.82353 21.4497 9.32773 20.1089 9.32773C18.7681 9.32773 17.7626 8.82353 16.9246 8.06723L12.4832 11.5126C13.1536 12.521 13.4888 13.6975 13.4888 14.958C13.4888 16.2185 13.1536 17.395 12.4832 18.4034L16.9246 21.8487C17.7626 21.0924 18.9357 20.5882 20.1089 20.5882C21.4497 20.5882 22.5391 21.0924 23.4609 21.9328C24.2989 22.7731 24.8017 23.9496 24.8017 25.2941C24.8017 26.6387 24.2989 27.7311 23.4609 28.5714C22.6229 29.4118 21.4497 30 20.1089 30C18.7681 30 17.6788 29.4958 16.757 28.6555C15.919 27.8151 15.4162 26.6387 15.4162 25.3782C15.4162 24.5378 15.6676 23.6975 16.0028 23.0252ZM21.7849 23.6975C21.3659 23.2773 20.7793 23.0252 20.1089 23.0252C19.4385 23.0252 18.8519 23.2773 18.4329 23.6975C18.0139 24.1176 17.7626 24.7059 17.7626 25.3782C17.7626 26.0504 18.0139 26.6387 18.4329 27.0588C18.8519 27.479 19.4385 27.7311 20.1089 27.7311C20.7793 27.7311 21.3659 27.479 21.7849 27.0588C22.2039 26.6387 22.4553 26.0504 22.4553 25.3782C22.4553 24.7059 22.2039 24.1176 21.7849 23.6975ZM9.88547 12.1008C9.13128 11.3445 8.12569 10.8403 6.95251 10.8403C5.77932 10.8403 4.77374 11.3445 4.01955 12.1008C3.26536 12.8571 2.76257 13.8655 2.76257 15.042C2.76257 16.2185 3.18156 17.2269 3.93575 17.9832C4.68994 18.8235 5.69553 19.2437 6.86871 19.2437C8.04189 19.2437 9.04748 18.8235 9.80167 18.0672C10.5559 17.2269 11.0586 16.2185 11.0586 15.042C11.0586 13.8655 10.6397 12.8571 9.88547 12.1008ZM21.7849 3.02521C21.3659 2.60504 20.7793 2.35294 20.1089 2.35294C19.4385 2.35294 18.8519 2.60504 18.4329 3.02521C18.0139 3.44538 17.7626 4.03361 17.7626 4.70588C17.7626 5.37815 18.0139 5.96639 18.4329 6.38655C18.8519 6.80672 19.4385 7.05882 20.1089 7.05882C20.7793 7.05882 21.3659 6.80672 21.7849 6.38655C22.2039 5.96639 22.4553 5.37815 22.4553 4.70588C22.4553 4.03361 22.2039 3.44538 21.7849 3.02521Z" fill="#0F3D5F"/>
</svg>
