<?xml version="1.0" encoding="UTF-8"?>
<svg id="_圖層_1" data-name="圖層_1" xmlns="http://www.w3.org/2000/svg" xmlns:xlink="http://www.w3.org/1999/xlink" version="1.1" viewBox="0 0 63 62">
  <!-- Generator: Adobe Illustrator 29.4.0, SVG Export Plug-In . SVG Version: 2.1.0 Build 152)  -->
  <defs>
    <style>
      .st0 {
        fill: none;
      }

      .st1 {
        fill: #a2231c;
      }

      .st2 {
        clip-path: url(#clippath);
      }
    </style>
    <clipPath id="clippath">
      <rect class="st0" x=".5" width="62" height="62"/>
    </clipPath>
  </defs>
  <g class="st2">
    <path class="st1" d="M32.6,12.9h22.2c.7,0,1.3.3,1.8.8.5.5.8,1.1.8,1.8v36.2c0,.7-.3,1.3-.8,1.8-.5.5-1.1.8-1.8.8H8.3c-.7,0-1.3-.3-1.8-.8-.5-.5-.8-1.1-.8-1.8V10.3c0-.7.3-1.3.8-1.8.5-.5,1.1-.8,1.8-.8h19.2l5.2,5.2ZM10.8,12.9v36.2h41.3v-31h-21.7l-5.2-5.2h-14.4ZM34.1,33.6h7.8l-10.3,10.3-10.3-10.3h7.8v-10.3h5.2v10.3Z"/>
  </g>
</svg>