<?xml version="1.0" encoding="UTF-8"?>
<svg id="_圖層_1" data-name="圖層_1" xmlns="http://www.w3.org/2000/svg" version="1.1" viewBox="0 0 63 62">
  <!-- Generator: Adobe Illustrator 29.4.0, SVG Export Plug-In . SVG Version: 2.1.0 Build 152)  -->
  <defs>
    <style>
      .st0 {
        fill: #a2231c;
      }
    </style>
  </defs>
  <path class="st0" d="M39.8,25.7c-1.1-1.1-1.8-2.5-2-4l-1-8-7.1,3.8c-1.4.7-2.9,1-4.4.7l-7.9-1.5,1.5,7.9c.3,1.5,0,3.1-.7,4.4l-3.8,7.1,8,1c1.5.2,2.9.9,4,2l5.5,5.8,3.5-7.3c.7-1.4,1.8-2.5,3.2-3.2l7.3-3.5-5.8-5.5ZM39.8,40.1l-5.7,12c-.1.2-.3.4-.5.6s-.4.2-.7.3c-.2,0-.5,0-.7,0-.2,0-.5-.2-.6-.4l-9.2-9.7c-.2-.3-.6-.4-.9-.5l-13.2-1.7c-.2,0-.5-.1-.7-.3-.2-.1-.4-.3-.5-.6-.1-.2-.2-.5-.2-.7s0-.5.2-.7l6.4-11.7c.2-.3.2-.7.2-1l-2.4-13.1c0-.2,0-.5,0-.7,0-.2.2-.5.4-.6s.4-.3.6-.4.5,0,.7,0l13.1,2.4c.3,0,.7,0,1-.2l11.7-6.4c.2-.1.5-.2.7-.2.3,0,.5,0,.7.2.2.1.4.3.6.5.1.2.2.4.3.7l1.7,13.2c0,.4.2.7.5.9l9.7,9.2c.2.2.3.4.4.6,0,.2.1.5,0,.7,0,.2-.1.5-.3.7-.2.2-.3.4-.6.5l-12,5.7c-.3.2-.6.4-.7.7ZM41.9,45l3.7-3.7,11,11-3.7,3.7-11-11Z"/>
</svg>