<?xml version="1.0" encoding="utf-8"?>
<!-- Generator: Adobe Illustrator 26.3.1, SVG Export Plug-In . SVG Version: 6.00 Build 0)  -->
<svg version="1.1" id="圖層_1" xmlns="http://www.w3.org/2000/svg" xmlns:xlink="http://www.w3.org/1999/xlink" x="0px" y="0px"
	 viewBox="0 0 36 29" style="enable-background:new 0 0 36 29;" xml:space="preserve">
<style type="text/css">
	.st0{fill:#FFFFFF;}
</style>
<path class="st0" d="M34.6,4.4c0.8,3.1,0.8,9.7,0.8,9.7s0,6.5-0.8,9.7c-0.4,1.7-1.7,3.1-3.4,3.6c-3,0.8-13.3,0.8-13.3,0.8
	s-10.3,0-13.3-0.8c-1.6-0.5-2.9-1.8-3.4-3.6c-0.8-3.1-0.8-9.7-0.8-9.7s0-6.5,0.8-9.7C1.7,2.7,3,1.3,4.7,0.9C7.7,0,17.9,0,17.9,0
	s10.3,0,13.3,0.8C32.9,1.3,34.1,2.7,34.6,4.4L34.6,4.4z M14.4,20.3l10.5-6.2L14.4,8V20.3z"/>
</svg>
