<?xml version="1.0" encoding="UTF-8"?><svg id="_圖層_1" xmlns="http://www.w3.org/2000/svg" xmlns:xlink="http://www.w3.org/1999/xlink" viewBox="0 0 30 30"><defs><style>.cls-1{fill:none;}.cls-2{fill:#444;}.cls-3{clip-path:url(#clippath);}</style><clipPath id="clippath"><rect class="cls-1" width="30" height="30"/></clipPath></defs><g class="cls-3"><path class="cls-2" d="M17.5,23.03l-4.44-3.45h-.08c-1.17,1.26-2.77,1.93-4.53,1.93s-3.44-.76-4.61-1.85c-1.17-1.26-1.84-2.86-1.84-4.62s.75-3.45,1.93-4.62c1.17-1.18,2.77-1.93,4.61-1.93s3.44.76,4.53,1.93l4.44-3.45c-.42-.67-.59-1.43-.59-2.35,0-1.26.5-2.44,1.34-3.28.84-.84,2.01-1.34,3.35-1.34s2.43.5,3.35,1.34c.84.84,1.34,2.02,1.34,3.28s-.5,2.44-1.34,3.36c-.84.84-2.01,1.34-3.35,1.34s-2.35-.5-3.18-1.26l-4.44,3.45c.67,1.01,1.01,2.18,1.01,3.45s-.34,2.44-1.01,3.45l4.44,3.45c.84-.76,2.01-1.26,3.18-1.26,1.34,0,2.43.5,3.35,1.34.84.84,1.34,2.02,1.34,3.36s-.5,2.44-1.34,3.28c-.84.84-2.01,1.43-3.35,1.43s-2.43-.5-3.35-1.34c-.84-.84-1.34-2.02-1.34-3.28,0-.84.25-1.68.59-2.35ZM23.28,23.7c-.42-.42-1.01-.67-1.68-.67s-1.26.25-1.68.67c-.42.42-.67,1.01-.67,1.68s.25,1.26.67,1.68c.42.42,1.01.67,1.68.67s1.26-.25,1.68-.67c.42-.42.67-1.01.67-1.68s-.25-1.26-.67-1.68ZM11.39,12.1c-.75-.76-1.76-1.26-2.93-1.26s-2.18.5-2.93,1.26c-.75.76-1.26,1.76-1.26,2.94s.42,2.18,1.17,2.94c.75.84,1.76,1.26,2.93,1.26s2.18-.42,2.93-1.18c.75-.84,1.26-1.85,1.26-3.03s-.42-2.18-1.17-2.94ZM23.28,3.03c-.42-.42-1.01-.67-1.68-.67s-1.26.25-1.68.67c-.42.42-.67,1.01-.67,1.68s.25,1.26.67,1.68c.42.42,1.01.67,1.68.67s1.26-.25,1.68-.67c.42-.42.67-1.01.67-1.68s-.25-1.26-.67-1.68Z"/></g></svg>