<?xml version="1.0" encoding="UTF-8"?>
<svg id="_圖層_1" data-name="圖層_1" xmlns="http://www.w3.org/2000/svg" xmlns:xlink="http://www.w3.org/1999/xlink" version="1.1" viewBox="0 0 63 62">
  <!-- Generator: Adobe Illustrator 29.4.0, SVG Export Plug-In . SVG Version: 2.1.0 Build 152)  -->
  <defs>
    <style>
      .st0, .st1 {
        fill: none;
      }

      .st1 {
        stroke: #a2231c;
        stroke-linecap: round;
        stroke-linejoin: round;
        stroke-width: 5px;
      }

      .st2 {
        clip-path: url(#clippath);
      }
    </style>
    <clipPath id="clippath">
      <rect class="st0" x=".5" width="62" height="62"/>
    </clipPath>
  </defs>
  <g class="st2">
    <g>
      <path class="st1" d="M15,54.2l-6.1-10.2c-.6-1.1-.8-2.4-.5-3.7.3-1.2,1.1-2.3,2.3-2.9,1.1-.6,2.4-.8,3.7-.5,1.2.3,2.3,1.1,2.9,2.2l4.5,7.3v-26.2c0-1.3.5-2.5,1.4-3.4.9-.9,2.1-1.4,3.4-1.4s2.5.5,3.4,1.4c.9.9,1.4,2.1,1.4,3.4v13.6c0-1.3.5-2.5,1.4-3.4.9-.9,2.1-1.4,3.4-1.4s2.5.5,3.4,1.4c.9.9,1.4,2.1,1.4,3.4v3.9c0-1.3.5-2.5,1.4-3.4.9-.9,2.1-1.4,3.4-1.4s2.5.5,3.4,1.4c.9.9,1.4,2.1,1.4,3.4v8.7c0,3.4-.4,6.1-1,7.8"/>
      <path class="st1" d="M12.1,20.3c0-3.9,1.5-7.6,4.3-10.3,2.7-2.7,6.4-4.3,10.3-4.3s7.6,1.5,10.3,4.3c2.7,2.7,4.3,6.4,4.3,10.3"/>
    </g>
  </g>
</svg>