<?xml version="1.0" encoding="UTF-8"?>
<svg id="_圖層_1" data-name="圖層_1" xmlns="http://www.w3.org/2000/svg" xmlns:xlink="http://www.w3.org/1999/xlink" version="1.1" viewBox="0 0 63 62">
  <!-- Generator: Adobe Illustrator 29.4.0, SVG Export Plug-In . SVG Version: 2.1.0 Build 152)  -->
  <defs>
    <style>
      .st0, .st1 {
        fill: none;
      }

      .st1 {
        stroke: #a2231c;
        stroke-linecap: round;
        stroke-linejoin: round;
        stroke-width: 5px;
      }

      .st2 {
        clip-path: url(#clippath);
      }
    </style>
    <clipPath id="clippath">
      <rect class="st0" x=".5" width="62" height="62"/>
    </clipPath>
  </defs>
  <g class="st2">
    <g>
      <path class="st1" d="M40.2,54.2H14.1c-.5,0-1-.2-1.4-.6-.4-.4-.6-.9-.6-1.4V18.4c0-.5.2-1,.6-1.4.4-.4.9-.6,1.4-.6h18.4l9.7,9.7v26.2c0,.5-.2,1-.6,1.4s-.9.6-1.4.6Z"/>
      <path class="st1" d="M20.8,16.5v-7.8c0-.5.2-1,.6-1.4.4-.4.9-.6,1.4-.6h19.4l9.7,9.7v26.2c0,.5-.2,1-.6,1.4s-.9.6-1.4.6h-7.8"/>
      <path class="st1" d="M21.8,34.9h10.7"/>
      <path class="st1" d="M21.8,44.6h10.7"/>
    </g>
  </g>
</svg>