<?xml version="1.0" encoding="UTF-8"?>
<svg id="_圖層_1" data-name="圖層_1" xmlns="http://www.w3.org/2000/svg" xmlns:xlink="http://www.w3.org/1999/xlink" version="1.1" viewBox="0 0 63 62">
  <!-- Generator: Adobe Illustrator 29.4.0, SVG Export Plug-In . SVG Version: 2.1.0 Build 152)  -->
  <defs>
    <style>
      .st0 {
        fill: none;
      }

      .st1 {
        fill: #a2231c;
      }

      .st2 {
        clip-path: url(#clippath);
      }
    </style>
    <clipPath id="clippath">
      <rect class="st0" x=".5" width="62" height="62"/>
    </clipPath>
  </defs>
  <g class="st2">
    <path class="st1" d="M31.5,56.8c-14.3,0-25.8-11.6-25.8-25.8S17.2,5.2,31.5,5.2s25.8,11.6,25.8,25.8-11.6,25.8-25.8,25.8ZM31.5,51.7c5.5,0,10.7-2.2,14.6-6.1,3.9-3.9,6.1-9.1,6.1-14.6s-2.2-10.7-6.1-14.6c-3.9-3.9-9.1-6.1-14.6-6.1s-10.7,2.2-14.6,6.1c-3.9,3.9-6.1,9.1-6.1,14.6s2.2,10.7,6.1,14.6c3.9,3.9,9.1,6.1,14.6,6.1ZM28.9,38.8h5.2v5.2h-5.2v-5.2ZM34.1,34.5v1.7h-5.2v-3.9c0-.7.3-1.3.8-1.8s1.1-.8,1.8-.8c.7,0,1.5-.2,2.1-.6.6-.4,1.1-1,1.4-1.6.3-.7.4-1.4.3-2.1,0-.7-.4-1.4-.8-2-.5-.6-1.1-1-1.8-1.2s-1.4-.3-2.2,0c-.7.2-1.4.6-1.9,1.1-.5.5-.9,1.2-1,1.9l-5.1-1c.3-1.6,1-3,2.1-4.2,1.1-1.2,2.4-2.1,3.9-2.6,1.5-.5,3.1-.6,4.7-.2,1.6.3,3,1.1,4.2,2.2,1.2,1.1,2.1,2.5,2.5,4,.5,1.5.5,3.2.2,4.7-.4,1.6-1.1,3-2.2,4.2-1.1,1.2-2.5,2-4,2.5Z"/>
  </g>
</svg>