<?xml version="1.0" encoding="utf-8"?>
<!-- Generator: Adobe Illustrator 26.3.1, SVG Export Plug-In . SVG Version: 6.00 Build 0)  -->
<svg version="1.1" id="圖層_1" xmlns="http://www.w3.org/2000/svg" xmlns:xlink="http://www.w3.org/1999/xlink" x="0px" y="0px"
	 viewBox="0 0 42 42" style="enable-background:new 0 0 42 42;" xml:space="preserve">
<style type="text/css">
	.st0{fill:#0F3D5F;}
</style>
<path class="st0" d="M37.7,11.4c0.8,3.1,0.8,9.6,0.8,9.6s0,6.5-0.8,9.6c-0.4,1.7-1.7,3.1-3.4,3.5C31.3,35,21,35,21,35
	s-10.3,0-13.3-0.8c-1.7-0.5-3-1.8-3.4-3.5C3.5,27.5,3.5,21,3.5,21s0-6.5,0.8-9.6C4.7,9.6,6,8.3,7.7,7.8C10.7,7,21,7,21,7
	s10.3,0,13.3,0.8C36,8.3,37.3,9.7,37.7,11.4L37.7,11.4z M17.5,27.1L28,21l-10.5-6.1V27.1z"/>
</svg>
