<?xml version="1.0" encoding="UTF-8"?><svg id="_圖層_1" xmlns="http://www.w3.org/2000/svg" viewBox="0 0 30 25.64"><defs><style>.cls-1{fill:#444;}</style></defs><path class="cls-1" d="M3.52,5.53h2.43V.67s.34-.67.67-.67h16.68s.67.34.67.67v4.86h2.43s.67.34.67.67v6.62h1.76c.67,0,1.17.5,1.17,1.17v10.47c0,.67-.5,1.17-1.17,1.17H1.17c-.67,0-1.17-.5-1.17-1.17v-10.47c0-.67.5-1.17,1.17-1.17h1.76v-6.54s.34-.67.67-.67h-.08v-.08ZM4.19,12.82h1.68v-5.87h-1.68v5.95h.08l-.08-.08ZM7.29,12.82h15.34V1.42H7.29v11.4ZM24.05,12.82h1.68v-5.87h-1.68v5.95-.08ZM27.65,15.17H2.35v8.21h3.6v-2.51s.34-.67.67-.67h16.68s.67.34.67.67v2.51h3.6v-8.21h.08ZM7.29,23.38h15.34v-1.84H7.29v1.84Z"/></svg>