<?xml version="1.0" encoding="UTF-8"?>
<svg id="_圖層_1" data-name="圖層_1" xmlns="http://www.w3.org/2000/svg" xmlns:xlink="http://www.w3.org/1999/xlink" version="1.1" viewBox="0 0 63 62">
  <!-- Generator: Adobe Illustrator 29.4.0, SVG Export Plug-In . SVG Version: 2.1.0 Build 152)  -->
  <defs>
    <style>
      .st0, .st1 {
        fill: none;
      }

      .st1 {
        stroke: #a2231c;
        stroke-linecap: round;
        stroke-linejoin: round;
        stroke-width: 5px;
      }

      .st2 {
        clip-path: url(#clippath);
      }
    </style>
    <clipPath id="clippath">
      <rect class="st0" x=".5" width="62" height="62"/>
    </clipPath>
  </defs>
  <g class="st2">
    <g>
      <path class="st1" d="M54.8,13.6H8.2c-1.1,0-1.9.9-1.9,1.9v5.8c0,1.1.9,1.9,1.9,1.9h46.5c1.1,0,1.9-.9,1.9-1.9v-5.8c0-1.1-.9-1.9-1.9-1.9Z"/>
      <path class="st1" d="M52.8,23.2v23.2c0,.5-.2,1-.6,1.4-.4.4-.9.6-1.4.6H12.1c-.5,0-1-.2-1.4-.6-.4-.4-.6-.9-.6-1.4v-23.2"/>
      <path class="st1" d="M25.7,32.9h11.6"/>
    </g>
  </g>
</svg>