<svg width="299" height="250" viewBox="0 0 299 250" fill="none" xmlns="http://www.w3.org/2000/svg">
<g clip-path="url(#clip0_251_1724)">
<path d="M100.325 181.012C100.325 181.012 18.4648 203.665 18.4648 258.218H140.867" fill="white"/>
<path d="M198.675 181.012C198.675 181.012 280.54 203.665 280.54 258.218H158.133" fill="white"/>
<path d="M149.497 0.212646C164.829 0.212646 179.532 6.34097 190.373 17.2495C201.214 28.1579 207.304 42.953 207.304 58.3799V210.128H91.6953V58.3799C91.6953 42.9539 97.785 28.1596 108.625 17.2512C119.465 6.34289 134.167 0.213981 149.497 0.212646Z" fill="white"/>
<path d="M127.715 54.8259H171.284L149.792 99.0744L127.715 54.8259Z" fill="#FF5E3E"/>
<path d="M125.46 62.3618C132.198 62.3618 137.661 56.8648 137.661 50.084C137.661 43.3031 132.198 37.8062 125.46 37.8062C118.721 37.8062 113.258 43.3031 113.258 50.084C113.258 56.8648 118.721 62.3618 125.46 62.3618Z" fill="#E4E0D5"/>
<path d="M173.542 62.3618C180.28 62.3618 185.743 56.8648 185.743 50.084C185.743 43.3031 180.28 37.8062 173.542 37.8062C166.803 37.8062 161.34 43.3031 161.34 50.084C161.34 56.8648 166.803 62.3618 173.542 62.3618Z" fill="#E4E0D5"/>
<path d="M137.66 50.084H161.338" stroke="#E4E0D5" stroke-width="3" stroke-miterlimit="10"/>
<path d="M149.502 193.542C149.502 193.542 121.527 151.377 55.5903 153.597L9.83008 188.835C28.3053 188.226 59.4674 189.781 86.8225 203.63C124.738 222.824 136.04 244.123 142.438 258.228H149.502V193.542Z" fill="#E4E0D5"/>
<path d="M86.8228 203.619C59.4677 189.771 28.2906 188.216 9.83037 188.825L0 196.376C56.9714 196.376 108.76 209.056 132.238 258.198H142.439C136.035 244.113 124.739 222.814 86.8228 203.619Z" fill="#C6C2B9"/>
<path d="M149.502 193.542C149.502 193.542 177.467 151.377 243.414 153.597L289.169 188.835C270.694 188.226 239.532 189.781 212.182 203.63C174.261 222.824 162.959 244.123 156.561 258.228H149.502V193.542Z" fill="#E4E0D5"/>
<path d="M212.183 203.619C239.533 189.771 270.715 188.216 289.17 188.825L299.001 196.376C242.034 196.376 190.24 209.056 166.762 258.198H156.547C162.96 244.113 174.262 222.814 212.183 203.619Z" fill="#C6C2B9"/>
<path d="M149.498 192.635V257.312" stroke="#3E3A39" stroke-width="0.75" stroke-miterlimit="10"/>
<path d="M127.715 31.0859C129.801 31.0859 131.492 29.3843 131.492 27.2853C131.492 25.1862 129.801 23.4846 127.715 23.4846C125.629 23.4846 123.938 25.1862 123.938 27.2853C123.938 29.3843 125.629 31.0859 127.715 31.0859Z" fill="#3E3A39"/>
<path d="M171.285 31.0859C173.371 31.0859 175.062 29.3843 175.062 27.2853C175.062 25.1862 173.371 23.4846 171.285 23.4846C169.199 23.4846 167.508 25.1862 167.508 27.2853C167.508 29.3843 169.199 31.0859 171.285 31.0859Z" fill="#3E3A39"/>
</g>
<defs>
<clipPath id="clip0_251_1724">
<rect width="299" height="258" fill="white" transform="translate(0 0.212646)"/>
</clipPath>
</defs>
</svg>
