<svg width="163" height="113" viewBox="0 0 163 110" fill="none" xmlns="http://www.w3.org/2000/svg">
<path d="M162.738 111.584H48.9786V0.580078H60.2188C73.6831 0.580078 87.0156 3.48433 99.4548 9.12706C111.894 14.7698 123.196 23.0404 132.716 33.4667C142.236 43.8929 149.788 56.2706 154.939 69.8928C160.09 83.515 162.74 98.1149 162.738 112.859V111.584Z" fill="white"/>
<path d="M48.9805 31.8984V0.580078H0.721069L48.9805 31.8984Z" fill="#FF5E3E"/>
<path d="M85.266 24.5428C82.4466 24.5428 80.1609 22.04 80.1609 18.9526C80.1609 15.8652 82.4466 13.3623 85.266 13.3623C88.0855 13.3623 90.3711 15.8652 90.3711 18.9526C90.3711 22.04 88.0855 24.5428 85.266 24.5428Z" fill="#3E3A39"/>
</svg>
