<?xml version="1.0" encoding="UTF-8"?><svg id="Capa_1" xmlns="http://www.w3.org/2000/svg" viewBox="0 0 400 500"><defs><style>.cls-1{fill:#ffd066;}.cls-2{fill:#fff;}</style></defs><path class="cls-1" d="M220.55,118H75.95c-14.6-.6-14.6-21.4,0-22h144.6c14.5.6,14.6,21.4,0,22Z"/><path class="cls-1" d="M210.95,212H75.95c-14.6-.6-14.6-21.4,0-22h135c14.6.6,14.7,21.4,0,22Z"/><path class="cls-1" d="M201.3,278h-125.3c-6.1,0-11-4.9-11-11s4.9-11,11-11h125.3c14.5.5,14.6,21.4,0,22Z"/><path class="cls-1" d="M234.7,342H76c-6.1,0-11-4.9-11-11s4.9-11,11-11h158.7c14.5.6,14.6,21.4,0,22Z"/><path class="cls-2" d="M146.7,437.6c-12.8.3-23.3-9.1-31-17.1-5-5-9.7-9.7-14-10.5-5.6-1.1-13.3,5.1-18.7,10.5-10.7,9.9-25.5-4.8-15.6-15.6,31.9-31.9,51.8-11.9,63.8,0,5,5,9.7,9.7,14,10.5,5.6,1.1,13.3-5.1,18.7-10.5,4.3-4.3,11.3-4.3,15.6,0s4.3,11.3,0,15.6c-11.5,11.4-22.3,17.1-32.8,17.1Z"/><path class="cls-1" d="M389.21,0H10.79C4.81,0,0,4.86,0,10.91v478.18c0,6.05,4.81,10.91,10.79,10.91h378.42c5.99,0,10.79-4.86,10.79-10.91V10.91c0-6.05-4.81-10.91-10.79-10.91ZM378.42,478.17H21.59V21.83h356.82v456.34h0Z"/></svg>